<?xml version="1.0" encoding="utf-8"?>
<!-- Generator: Adobe Illustrator 15.0.0, SVG Export Plug-In . SVG Version: 6.00 Build 0)  -->
<!DOCTYPE svg PUBLIC "-//W3C//DTD SVG 1.1//EN" "http://www.w3.org/Graphics/SVG/1.1/DTD/svg11.dtd">
<svg version="1.1" id="Layer_1" xmlns="http://www.w3.org/2000/svg" xmlns:xlink="http://www.w3.org/1999/xlink" x="0px" y="0px"
	 width="455.857px" height="455.859px" viewBox="0 0 455.857 455.859" enable-background="new 0 0 455.857 455.859"
	 xml:space="preserve">
<circle fill-rule="evenodd" clip-rule="evenodd" fill="#06A6E1" cx="227.929" cy="227.93" r="227.929"/>
<g>
	<path fill-rule="evenodd" clip-rule="evenodd" fill="#FFFFFF" d="M101.724,316.541c-33.371,0-60.426-27.045-60.426-60.412
		c0-33.375,27.055-60.426,60.426-60.426c0-69.707,56.512-126.211,126.205-126.211c69.709,0,126.215,56.504,126.215,126.211
		c33.367,0,60.416,27.051,60.416,60.426c0,33.367-27.049,60.412-60.416,60.412h-29.951V195.703
		c0-53.164-43.098-96.262-96.264-96.262c-53.162,0-96.26,43.098-96.26,96.262v120.838H101.724z"/>
	
		<path fill-rule="evenodd" clip-rule="evenodd" fill="none" stroke="#FFFFFF" stroke-width="29" stroke-linecap="round" stroke-miterlimit="10" d="
		M341.396,233.012c-16.346-28.285-60.969-48.582-113.467-48.582s-97.123,20.297-113.467,48.582"/>
	<path fill-rule="evenodd" clip-rule="evenodd" fill="#FFFFFF" d="M254.21,376.83c0,5.268-2.207,9.535-4.928,9.535h-42.705
		c-2.723,0-4.928-4.268-4.928-9.535l0,0c0-5.264,2.205-9.533,4.928-9.533h42.705C252.003,367.297,254.21,371.566,254.21,376.83
		L254.21,376.83z"/>
	
		<path fill-rule="evenodd" clip-rule="evenodd" fill="none" stroke="#FFFFFF" stroke-width="11" stroke-linecap="round" stroke-miterlimit="10" d="
		M248.282,376.83c24.691,0,86.119-2.748,86.119-60.371"/>
	<g>
		<path fill-rule="evenodd" clip-rule="evenodd" fill="#FFFFFF" d="M41.298,256.129c0,33.367,27.055,60.412,60.426,60.412V195.703
			C68.353,195.703,41.298,222.754,41.298,256.129z"/>
		<rect x="77.735" y="194.143" fill-rule="evenodd" clip-rule="evenodd" fill="#06A6E1" width="23.988" height="123.75"/>
	</g>
	<g>
		<path fill-rule="evenodd" clip-rule="evenodd" fill="#FFFFFF" d="M414.56,256.129c0,33.367-27.055,60.412-60.428,60.412V195.703
			C387.505,195.703,414.56,222.754,414.56,256.129z"/>
		<rect x="354.132" y="193.018" fill-rule="evenodd" clip-rule="evenodd" fill="#06A6E1" width="23.99" height="126.209"/>
	</g>
</g>
</svg>
