<?xml version="1.0" encoding="utf-8"?>
<!-- Generator: Adobe Illustrator 16.0.0, SVG Export Plug-In . SVG Version: 6.00 Build 0)  -->
<!DOCTYPE svg PUBLIC "-//W3C//DTD SVG 1.1//EN" "http://www.w3.org/Graphics/SVG/1.1/DTD/svg11.dtd">
<svg version="1.1" id="Layer_1" xmlns="http://www.w3.org/2000/svg" xmlns:xlink="http://www.w3.org/1999/xlink" x="0px" y="0px"
	 width="96px" height="80px" viewBox="0 0 96 80" style="enable-background:new 0 0 96 80;" xml:space="preserve">
<style type="text/css">
<![CDATA[
	.st0{fill:url(#SVGID_1_);}
	.st1{opacity:0.15;fill:#3D97D3;enable-background:new    ;}
	.st2{fill:#FFFFFF;}
]]>
</style>
<g>
	
		<linearGradient id="SVGID_1_" gradientUnits="userSpaceOnUse" x1="299.917" y1="203.4883" x2="299.917" y2="123.5381" gradientTransform="matrix(1 0 0 1 -270.0352 -123.5371)">
		<stop  offset="0" style="stop-color:#1E76BB"/>
		<stop  offset="1" style="stop-color:#3D97D3"/>
	</linearGradient>
	<polygon class="st0" points="59.8,60 0,80 0,0 59.8,0 	"/>
	<polygon class="st1" points="59.7,60 96,80 0.4,80 	"/>
</g>
<path class="st2" d="M35.9,50.9c3.4-3.4,4.8-9.7,2.1-13.7C52.4,25.1,51.5,9.9,51.5,9.7l-0.1-1.2l-1.2-0.1c-0.2,0-15.6-0.9-27.8,13.8
	c-3.9-2.6-10-1.3-13.2,1.9l-0.8,0.8l26.7,26.7L35.9,50.9z M48.9,11c-0.1,2.2-0.8,7.3-3.5,12.8L36,14.5C41.5,11.7,46.6,11.1,48.9,11z
	 M11.9,24.9c2.5-1.7,6.1-2.5,8.9-0.5c-1.3,1.7-2.5,3.6-3.6,5.7L11.9,24.9z M27.8,40.8l-3.2-3.2l7.4-7.4l-2.1-2.1l-7.4,7.4l-3.4-3.4
	C23.3,24,28.4,19.2,33.4,16l10.4,10.4C40.6,31.5,35.8,36.5,27.8,40.8z M35.7,39c2.1,2.8,0.9,6.6-0.8,9l-5.2-5.2
	C31.9,41.6,33.9,40.3,35.7,39z"/>
</svg>
