<?xml version="1.0" encoding="utf-8"?>
<!-- Generator: Adobe Illustrator 16.0.0, SVG Export Plug-In . SVG Version: 6.00 Build 0)  -->
<!DOCTYPE svg PUBLIC "-//W3C//DTD SVG 1.1//EN" "http://www.w3.org/Graphics/SVG/1.1/DTD/svg11.dtd">
<svg version="1.1" id="Layer_1" xmlns="http://www.w3.org/2000/svg" xmlns:xlink="http://www.w3.org/1999/xlink" x="0px" y="0px"
	 width="96px" height="80px" viewBox="0 0 96 80" style="enable-background:new 0 0 96 80;" xml:space="preserve">
<style type="text/css">
<![CDATA[
	.st0{fill:url(#SVGID_1_);}
	.st1{opacity:0.15;fill:#3D97D3;enable-background:new    ;}
	.st2{fill:#FFFFFF;}
	.st3{fill:none;}
]]>
</style>
<g>
	<g>
		
			<linearGradient id="SVGID_1_" gradientUnits="userSpaceOnUse" x1="299.917" y1="446.8203" x2="299.917" y2="366.8691" gradientTransform="matrix(1 0 0 1 -270.0352 -366.8691)">
			<stop  offset="0" style="stop-color:#1E76BB"/>
			<stop  offset="1" style="stop-color:#3D97D3"/>
		</linearGradient>
		<polygon class="st0" points="59.8,60 0,80 0,0 59.8,0 		"/>
		<polygon class="st1" points="59.7,60 96,80 0.4,80 		"/>
	</g>
	<g>
		<path class="st3" d="M18.4,36.2c0.3,0.2,0.5,0.7,0.7,1.1c0.3-0.1,0.8-0.1,1.3,0c0.5,0.1,1,0.3,1.4,0.8c0.3,0.4,0.4,0.9,0.5,1.4
			c0.3,0,0.7,0,1.1,0.2c0.5,0.2,0.9,0.5,1.2,1c0.2,0.4,0.3,0.9,0.2,1.5c0.3,0,0.5,0,1,0.3c0.2,0.1,0.5,0.3,0.7,0.6l13.8-15.2
			l-7.9-7.1L18.4,36.2z"/>
		<path class="st3" d="M25.3,43.6c-0.5-0.2-1.1-0.3-1.1-0.3l-0.7-0.1l0.1-0.7c0.1-0.6,0-1-0.1-1.2c-0.1-0.2-0.3-0.3-0.6-0.4
			c-0.5-0.2-1.2-0.1-1.2-0.1L21,41l0-0.8c0-0.7-0.1-1.1-0.2-1.3c-0.1-0.2-0.3-0.3-0.6-0.3c-0.5-0.1-1.2,0.1-1.2,0.1l-0.6,0.2
			l-0.2-0.6c-0.2-0.6-0.4-0.9-0.6-1.1c0,0,0,0,0,0l-0.1,0.1c-0.1,0.1-0.1,0.1-0.1,0.1l0,0l-0.1,0.1c-0.2,0.2-0.7,1-1.1,2
			c-0.4,1-0.7,2.3-0.9,3.5c-0.2,1.2-0.4,2.5-0.3,3.4c0,0.7,0.2,1.1,0.2,1.3c0.1,0,0.5,0.1,1.1,0.1c0.8,0,1.9-0.2,3-0.5
			c2.2-0.6,4.6-1.6,5.5-2.4l0.1,0l0,0c0.2-0.1,0.3-0.2,0.5-0.4l0.4-0.4C25.6,43.9,25.5,43.8,25.3,43.6z"/>
		<path class="st3" d="M41.5,14.6c-0.5-0.5-1.2-0.7-1.8-0.7c-0.6,0-1.3,0.3-1.8,0.9l-3.1,3.4l6.7,6.1c0.3,0.2,0.3,0.6,0,0.9
			c-0.2,0.3-0.6,0.3-0.9,0L34,19.1l-0.7,0.7l7.9,7.1l4.6-5.1c1-1.1,0.9-2.6-0.2-3.6L41.5,14.6z"/>
		<path class="st2" d="M47.3,16.4l-4.1-3.7c-1-0.9-2.4-1.4-3.7-1.3C38.2,11.4,37,12,36,13L15.6,35.6c0,0,0,0.1-0.1,0.1
			c0,0,0,0-0.1,0.1l0,0c-0.7,0.7-1.2,1.7-1.6,2.8c-0.4,1.2-0.8,2.6-1.1,3.9c-0.3,1.4-0.4,2.7-0.4,3.9c0,1.2,0.1,2.3,1,3.1
			c0.9,0.8,1.8,0.8,2.9,0.7s2.2-0.2,3.5-0.6c2.4-0.6,4.8-1.6,6.4-2.8l0,0c0,0,0.1,0,0.1-0.1c0,0,0,0,0,0c0.3-0.2,0.6-0.5,0.9-0.8
			l20.5-22.6C49.5,21.5,49.4,18.3,47.3,16.4z M25.7,44C25.7,44,25.7,44,25.7,44l-0.4,0.4c-0.2,0.2-0.3,0.3-0.5,0.4l0,0l-0.1,0
			c-1,0.8-3.4,1.8-5.5,2.4c-1.1,0.3-2.2,0.4-3,0.5c-0.5,0-0.9-0.1-1.1-0.1c0-0.2-0.2-0.6-0.2-1.3c0-0.9,0.1-2.2,0.3-3.4
			c0.2-1.2,0.6-2.5,0.9-3.5c0.4-1,0.9-1.8,1.1-2l0.1-0.1l0,0c0,0,0,0,0.1-0.1l0.1-0.1c0,0,0,0,0,0c0,0,0,0,0,0
			c0.2,0.1,0.4,0.4,0.6,1.1l0.2,0.6l0.6-0.2c0,0,0.7-0.2,1.2-0.1c0.3,0,0.4,0.1,0.6,0.3c0.1,0.2,0.3,0.6,0.2,1.3l0,0.8l0.8-0.1
			c0,0,0.7-0.1,1.2,0.1c0.3,0.1,0.4,0.2,0.6,0.4c0.1,0.2,0.2,0.6,0.1,1.2l-0.1,0.7l0.7,0.1c0,0,0.7,0.1,1.1,0.3
			C25.5,43.8,25.6,43.9,25.7,44C25.7,44,25.7,44,25.7,44 M26.5,43.1C26.5,43.1,26.5,43.1,26.5,43.1c-0.2-0.2-0.4-0.4-0.7-0.6
			c-0.5-0.3-0.7-0.2-1-0.3c0-0.6,0-1.1-0.2-1.5c-0.3-0.5-0.8-0.9-1.2-1c-0.4-0.1-0.8-0.2-1.1-0.2c-0.1-0.6-0.2-1.1-0.5-1.4
			c-0.4-0.5-0.9-0.7-1.4-0.8c-0.5-0.1-1,0-1.3,0c-0.2-0.4-0.4-0.9-0.7-1.1c0,0,0,0,0,0l14.1-15.5l0,0l7.9,7.1l0,0L26.5,43.1z
			 M31.5,19.8c-0.1-0.3,0.2-0.7,0.5-0.7c0.2,0,0.4,0,0.5,0.2l0.7,0.6l0.7-0.7l0,0l6.7,6.1c0.3,0.2,0.7,0.2,0.9-0.1
			c0.2-0.3,0.2-0.7,0-0.9l-6.7-6.1l-0.6-0.6c-0.1-0.1-0.3-0.2-0.5-0.2c-0.3,0.1-0.6,0.4-0.5,0.7c0,0.1,0,0.1,0.1,0.2
			c0-0.1-0.1-0.1-0.1-0.2c-0.1-0.3,0.2-0.7,0.5-0.7c0.2,0,0.4,0,0.5,0.2l0.6,0.6l3.1-3.4c0.5-0.5,1.1-0.8,1.8-0.9
			c0.6,0,1.3,0.2,1.8,0.7l4.1,3.7c1.1,1,1.1,2.5,0.2,3.6L41.2,27 M41.2,27l-7.9-7.1l-0.7-0.6c-0.1-0.1-0.3-0.2-0.5-0.2
			c-0.3,0.1-0.6,0.4-0.5,0.7"/>
	</g>
</g>
</svg>
