<?xml version="1.0" encoding="utf-8"?>
<!-- Generator: Adobe Illustrator 16.0.0, SVG Export Plug-In . SVG Version: 6.00 Build 0)  -->
<!DOCTYPE svg PUBLIC "-//W3C//DTD SVG 1.1//EN" "http://www.w3.org/Graphics/SVG/1.1/DTD/svg11.dtd">
<svg version="1.1" id="Layer_1" xmlns="http://www.w3.org/2000/svg" xmlns:xlink="http://www.w3.org/1999/xlink" x="0px" y="0px"
	 width="96px" height="80px" viewBox="0 0 96 80" style="enable-background:new 0 0 96 80;" xml:space="preserve">
<style type="text/css">
<![CDATA[
	.st0{fill:url(#SVGID_1_);}
	.st1{opacity:0.15;fill:#3D97D3;enable-background:new    ;}
	.st2{fill:#FFFFFF;}
]]>
</style>
<g>
	<g>
		
			<linearGradient id="SVGID_1_" gradientUnits="userSpaceOnUse" x1="299.917" y1="196.9316" x2="299.917" y2="116.9814" gradientTransform="matrix(1 0 0 1 -270.0352 -116.9805)">
			<stop  offset="0" style="stop-color:#1E76BB"/>
			<stop  offset="1" style="stop-color:#3D97D3"/>
		</linearGradient>
		<polygon class="st0" points="59.8,60 0,80 0,0 59.8,0 		"/>
		<polygon class="st1" points="59.7,60 96,80 0.4,80 		"/>
	</g>
	<g>
		<path class="st2" d="M34.6,43.9c-5.1,0-12.1,0-13.6-0.1l-1.2,0c-2.1,0-3-0.1-3.9-0.3c-1.7-0.4-2.8-1.1-4-2.4
			c-1.2-1.2-2-2.7-2.3-4.4c-0.3-1.8-0.1-3.7,0.8-5.3c0.4-0.8,0.9-1.4,1.6-2.1c0.7-0.7,1.4-1.2,2.2-1.7c0.2-0.9,0.5-1.9,0.9-2.7
			c0.2-0.4,0.5-0.9,0.8-1.3c0,0,0.7-0.8,1-1c0,0,0,0,0.1-0.1c1.1-1,2.5-1.8,3.9-2.1c1.5-0.3,3.2-0.3,4.7,0.2
			c0.3-0.4,0.6-0.8,1.1-1.2c0.6-0.6,1.1-1,1.8-1.5c1.2-0.8,2.8-1.5,3.9-1.6c0.3,0,0.9-0.1,1.3-0.1c0.3,0,0.6,0,0.9,0
			c0.4,0,1,0,1.6,0.1c1.1,0.2,2.9,0.9,3.9,1.5c1,0.6,2,1.5,2.8,2.5c1.1,1.4,1.8,3,2.1,4.6c0.1,0.7,0.2,1,0.2,1.8c0,0.2,0,0.3,0,0.4
			c0.9,0.3,1.7,0.8,2.4,1.5c0.5,0.4,1.2,1.1,1.6,1.7c0.7,1,1.2,2.3,1.4,3.5c0.2,1.4,0,3.1-0.5,4.5c-0.4,1.1-1,2-1.9,2.9
			c-0.8,0.8-1.5,1.3-2.6,1.8c-0.8,0.4-1.4,0.6-2.2,0.7c-0.8,0.1-1.6,0.2-3.3,0.2C39.4,43.9,36.7,43.9,34.6,43.9z M18.7,24.9
			c-0.1,0.1-0.4,0.4-0.5,0.6c-0.2,0.2-0.4,0.5-0.5,0.8c-0.4,0.7-0.6,1.7-0.7,2.2L17,29.5l-1.3,0.6c-0.7,0.3-1.1,0.6-1.6,1.2
			c-0.5,0.5-0.8,0.9-1,1.4c-0.5,1.1-0.7,2.3-0.5,3.4c0.2,1.1,0.7,2,1.5,2.8c0.9,0.9,1.5,1.3,2.6,1.6c0.6,0.1,1.1,0.2,3.2,0.2l1.2,0
			c1.5,0,8.4,0.1,13.6,0.1c3,0,4.9,0,5.3,0c1.6-0.1,2.3-0.1,2.9-0.2c0.5-0.1,0.9-0.2,1.5-0.5c0.8-0.4,1.2-0.6,1.7-1.2
			c0.5-0.6,0.9-1.1,1.2-1.8c0.4-0.9,0.5-2.1,0.3-2.9c-0.1-0.8-0.5-1.6-0.9-2.3c-0.2-0.3-0.7-0.9-1-1.1c-0.7-0.6-1.4-1-2.2-1.2
			c-1.2-0.3-1.4-1-1.4-1.6c0,0,0-0.3,0.1-0.6c0-0.3,0-0.3,0-0.8c0-0.6,0-0.8-0.1-1.2c-0.2-1.2-0.8-2.4-1.6-3.4
			c-0.5-0.7-1.3-1.4-1.9-1.8c-0.9-0.5-2.2-1-2.8-1.1c-0.2,0-0.6-0.1-1.2-0.1c-0.3,0-0.5,0-0.8,0c-0.3,0-0.8,0.1-1,0.1
			c-0.6,0.1-1.7,0.5-2.7,1.2c-0.5,0.4-0.9,0.7-1.3,1.1c-0.5,0.5-0.8,0.8-1.1,1.4l-0.9,1.5l-1.4-0.7c-1.1-0.5-2.6-0.7-3.8-0.4
			c-0.8,0.2-1.8,0.8-2.6,1.4C18.8,24.8,18.8,24.8,18.7,24.9z"/>
	</g>
</g>
</svg>
