<?xml version="1.0" encoding="utf-8"?>
<!-- Generator: Adobe Illustrator 16.0.0, SVG Export Plug-In . SVG Version: 6.00 Build 0)  -->
<!DOCTYPE svg PUBLIC "-//W3C//DTD SVG 1.1//EN" "http://www.w3.org/Graphics/SVG/1.1/DTD/svg11.dtd">
<svg version="1.1" id="Layer_1" xmlns="http://www.w3.org/2000/svg" xmlns:xlink="http://www.w3.org/1999/xlink" x="0px" y="0px"
	 width="96px" height="80px" viewBox="0 0 96 80" style="enable-background:new 0 0 96 80;" xml:space="preserve">
<style type="text/css">
<![CDATA[
	.st0{fill:url(#SVGID_1_);}
	.st1{opacity:0.15;fill:#3D97D3;enable-background:new    ;}
	.st2{fill:#FFFFFF;}
]]>
</style>
<g>
	<g>
		
			<linearGradient id="SVGID_1_" gradientUnits="userSpaceOnUse" x1="299.917" y1="200.4434" x2="299.917" y2="120.4932" gradientTransform="matrix(1 0 0 1 -270.0352 -120.4922)">
			<stop  offset="0" style="stop-color:#1E76BB"/>
			<stop  offset="1" style="stop-color:#3D97D3"/>
		</linearGradient>
		<polygon class="st0" points="59.8,60 0,80 0,0 59.8,0 		"/>
		<polygon class="st1" points="59.7,60 96,80 0.4,80 		"/>
	</g>
	<path id="rund_25_" class="st2" d="M47.9,24l-7.1,7.1c-0.7,0.7-1.7,0.7-2.4,0c-0.7-0.7-0.7-1.7,0-2.4l7.1-7.1c2-2,2-5.2,0-7.1
		c-2-2-5.2-2-7.1,0L28.8,24c-0.6,0.6-3.4,3.8,0,7.1c0.7,0.7,0.7,1.7,0,2.4c-0.7,0.7-1.7,0.7-2.4,0c-4.7-4.7-2.1-9.9,0-11.9l9.5-9.5
		c3.3-3.3,8.6-3.3,11.9,0C51.2,15.4,51.2,20.7,47.9,24z M33.6,26.4c-0.7-0.7-1.7-0.7-2.4,0c-0.7,0.7-0.7,1.7,0,2.4
		c3.4,3.4,0.6,6.5,0,7.1l-9.5,9.5c-2,2-5.2,2-7.1,0c-2-2-2-5.2,0-7.1l7.1-7.1c0.7-0.7,0.7-1.7,0-2.4c-0.7-0.7-1.7-0.7-2.4,0
		l-7.1,7.1c-3.3,3.3-3.3,8.6,0,11.9c3.3,3.3,8.6,3.3,11.9,0l9.5-9.5C35.6,36.3,38.3,31.1,33.6,26.4z"/>
</g>
</svg>
