<?xml version="1.0" encoding="utf-8"?>
<!-- Generator: Adobe Illustrator 16.0.0, SVG Export Plug-In . SVG Version: 6.00 Build 0)  -->
<!DOCTYPE svg PUBLIC "-//W3C//DTD SVG 1.1//EN" "http://www.w3.org/Graphics/SVG/1.1/DTD/svg11.dtd">
<svg version="1.1" id="Layer_1" xmlns="http://www.w3.org/2000/svg" xmlns:xlink="http://www.w3.org/1999/xlink" x="0px" y="0px"
	 width="96px" height="80px" viewBox="0 0 96 80" style="enable-background:new 0 0 96 80;" xml:space="preserve">
<style type="text/css">
<![CDATA[
	.st0{fill:url(#SVGID_1_);}
	.st1{opacity:0.15;fill:#3D97D3;enable-background:new    ;}
	.st2{fill:#FFFFFF;}
]]>
</style>
<g>
	<g>
		
			<linearGradient id="SVGID_1_" gradientUnits="userSpaceOnUse" x1="299.917" y1="452.3066" x2="299.917" y2="372.3555" gradientTransform="matrix(1 0 0 1 -270.0352 -372.3555)">
			<stop  offset="0" style="stop-color:#1E76BB"/>
			<stop  offset="1" style="stop-color:#3D97D3"/>
		</linearGradient>
		<polygon class="st0" points="59.8,60 0,80 0,0 59.8,0 		"/>
		<polygon class="st1" points="59.7,60 96,80 0.4,80 		"/>
	</g>
	<g id="Your_Icon">
		<path class="st2" d="M47,17.2c0-0.8-0.6-1.4-1.4-1.4H14.4c-0.8,0-1.4,0.6-1.4,1.4v19.9c0,0.8,0.6,1.4,1.4,1.4h5.7h0
			c0.2,0,0.3,0,0.5-0.1c0,0,0.1,0,0.1,0c0.1-0.1,0.3-0.2,0.4-0.3c0,0,0,0,0.1-0.1c0-0.1,0.1-0.1,0.1-0.2l4.9-7.3l3,2
			c0.6,0.4,1.3,0.3,1.8-0.2l8.5-8.5c0.6-0.6,0.6-1.5,0-2c-0.6-0.6-1.5-0.6-2,0l-7.7,7.7l-3.2-2.2c-0.3-0.2-0.7-0.3-1.1-0.2
			c-0.4,0.1-0.7,0.3-0.9,0.6l-5.3,7.9h-3.5v-17h28.4v17h-17c-0.8,0-1.4,0.6-1.4,1.4v5.7c0,0.8,0.6,1.4,1.4,1.4h5.7
			c0.8,0,1.4-0.6,1.4-1.4c0-0.8-0.6-1.4-1.4-1.4h-4.3v-2.8h17c0.8,0,1.4-0.6,1.4-1.4V17.2z"/>
	</g>
</g>
</svg>
