<?xml version="1.0" encoding="utf-8"?>
<!-- Generator: Adobe Illustrator 16.0.0, SVG Export Plug-In . SVG Version: 6.00 Build 0)  -->
<!DOCTYPE svg PUBLIC "-//W3C//DTD SVG 1.1//EN" "http://www.w3.org/Graphics/SVG/1.1/DTD/svg11.dtd">
<svg version="1.1" id="Layer_1" xmlns="http://www.w3.org/2000/svg" xmlns:xlink="http://www.w3.org/1999/xlink" x="0px" y="0px"
	 height="324px" viewBox="0 -12 324 324" style="enable-background:new 0 -12 324 324;" xml:space="preserve">
<style type="text/css">
<![CDATA[
	.st0{fill:#46484E;}
	.st1{fill:#484848;}
	.st2{fill:#EAEAEA;}
	.st3{fill:#F5EB0E;}
	.st4{fill:none;}
]]>
</style>
<g>
	<g>
		<g>
			<path class="st2" d="M30.6,149.2C30.6,78.4,88.1,21,159,21l0,0c70.9,0,128.4,57.4,128.4,128.2l0,0h0
				c0,70.8-57.5,128.2-128.4,128.2l0,0C88.1,277.4,30.6,220,30.6,149.2L30.6,149.2z M68.6,58.9c-23.1,23.1-37.4,55-37.4,90.3l0,0
				c0,35.3,14.3,67.2,37.4,90.3l0,0c23.1,23.1,55.1,37.4,90.4,37.4l0,0c35.3,0,67.3-14.3,90.4-37.4l0,0c23.1-23.1,37.4-55,37.4-90.3
				l0,0c0-35.3-14.3-67.2-37.4-90.3l0,0c-23.1-23.1-55.1-37.4-90.4-37.4l0,0C123.7,21.5,91.7,35.8,68.6,58.9L68.6,58.9z"/>
		</g>
	</g>
	<g>
		<g>
			<path class="st3" d="M218.3,149.2c0,31.6-25.7,57.3-57.3,57.3c-31.7,0-57.3-25.6-57.3-57.3c0-31.6,25.7-57.2,57.3-57.2
				C192.6,91.9,218.3,117.6,218.3,149.2z"/>
		</g>
	</g>
	<g>
		<path class="st1" d="M157.9,137.5v16.7c0,1.9-1.6,3.5-3.5,3.5h-1.1c-1.9,0-3.5-1.6-3.5-3.5v-16.7h-3.1v16.7c0,3.6,2.9,6.5,6.5,6.5
			h1.1c3.6,0,6.5-2.9,6.5-6.5v-16.7H157.9z"/>
	</g>
	<g>
		<path class="st1" d="M186.7,140.6c1.9,0,3.5,1.6,3.5,3.5v10.2c0,1.9-1.6,3.5-3.5,3.5h-1.1c-1.9,0-3.5-1.6-3.5-3.5v-10.2
			c0-1.9,1.6-3.5,3.5-3.5H186.7 M186.7,137.5h-1.1c-3.6,0-6.5,2.9-6.5,6.5v10.2c0,3.6,2.9,6.5,6.5,6.5h1.1c3.6,0,6.5-2.9,6.5-6.5
			v-10.2C193.2,140.5,190.3,137.5,186.7,137.5L186.7,137.5z"/>
	</g>
	<g>
		<g>
			<path class="st1" d="M141.4,144.1c0-3.6-2.9-6.5-6.5-6.5h-1.1c-3.6,0-6.5,2.9-6.5,6.5v10.2c0,3.6,2.9,6.5,6.5,6.5h1.1
				c3.6,0,6.5-2.9,6.5-6.5h-3.1c0,1.9-1.6,3.5-3.5,3.5h-1.1c-1.9,0-3.5-1.6-3.5-3.5v-10.2c0-1.9,1.6-3.5,3.5-3.5h1.1
				c1.9,0,3.5,1.6,3.5,3.5H141.4z"/>
		</g>
	</g>
	<g>
		<path class="st1" d="M173.2,137.5c-3.6,0-6.5,2.9-6.5,6.5l0,0v16.7h3.1v-16.7l0,0c0-1.9,1.6-3.5,3.5-3.5h1.8v-3.1L173.2,137.5
			L173.2,137.5z"/>
	</g>
	<g>
		<polygon class="st3" points="196.3,141.9 201.7,141.9 201.7,137.5 194.2,137.5 194.2,141.9 195.3,141.9 195.3,143 		"/>
	</g>
	<g>
		<g>
			<path class="st1" d="M195.3,138.8v-0.4h2.1v0.4h-0.8v2.1h-0.5v-2.1H195.3z M198.5,138.4l0.6,1.8l0.6-1.8h0.7v2.5H200v-2l-0.7,2
				H199l-0.7-2v2h-0.4v-2.5H198.5z"/>
		</g>
	</g>
	<g>
		<g>
			<path class="st0" d="M161,93.7C160.9,93.7,160.9,93.7,161,93.7C160.9,93.7,160.9,93.7,161,93.7C160.9,93.7,160.9,93.7,161,93.7
				C160.9,93.7,160.9,93.7,161,93.7C160.9,93.7,160.9,93.7,161,93.7C160.9,93.7,160.9,93.7,161,93.7C160.9,93.7,160.9,93.7,161,93.7
				C160.9,93.7,160.9,93.7,161,93.7c-0.1,0-0.1,0-0.1,0c0,0,0,0,0,0c0,0,0,0,0,0h0c0,0,0,0,0,0c0,0,0,0,0,0c0,0,0,0,0,0s0,0,0,0
				c0,0,0,0,0,0s0,0,0,0c0,0,0,0,0,0c0,0,0,0,0,0c0,0,0,0,0,0c0,0,0,0,0,0c0,0,0,0,0,0c0,0,0,0,0,0c0,0,0,0,0,0c0,0,0,0,0,0
				c0,0,0,0,0,0c0,0,0,0,0,0c0,0,0,0,0,0c0,0,0,0,0,0c0,0,0,0,0,0c0,0,0,0,0,0c0,0,0,0,0,0c0,0,0,0,0,0c0,0,0,0,0,0c0,0,0,0,0,0
				c0,0,0,0,0,0l0,0c0,0,0,0-0.1,0c0,0,0,0,0,0c0,0,0,0,0,0c0,0,0,0,0,0c0,0,0,0,0,0l0,0c-0.6,0-1.2,0-1.8,0l0,0.3
				c0.8,0,1.6-0.1,2.4-0.1L161,93.7L161,93.7L161,93.7z M156.1,93.9c-0.3,0-0.5,0-0.8,0.1l0,0c0,0,0,0,0,0c0,0,0,0,0,0c0,0,0,0,0,0
				c0,0,0,0,0,0c0,0,0,0,0,0c0,0,0,0,0,0c0,0,0,0-0.1,0c0,0,0,0,0,0c0,0,0,0,0,0c0,0,0,0,0,0c0,0,0,0,0,0c0,0,0,0,0,0c0,0,0,0,0,0
				c0,0,0,0,0,0c0,0,0,0,0,0h0c0,0,0,0,0,0c0,0,0,0,0,0c0,0,0,0,0,0c0,0,0,0,0,0c0,0,0,0,0,0c0,0,0,0,0,0c0,0,0,0,0,0c0,0,0,0,0,0
				c0,0,0,0,0,0c0,0,0,0,0,0c0,0,0,0,0,0c0,0,0,0,0,0c0,0,0,0,0,0c0,0,0,0,0,0c0,0,0,0,0,0c0,0,0,0,0,0c0,0,0,0,0,0s0,0,0,0
				c0,0,0,0,0,0c0,0,0,0,0,0c0,0,0,0,0,0c0,0,0,0,0,0c0,0,0,0,0,0c0,0,0,0,0,0s0,0,0,0c0,0,0,0,0,0c0,0,0,0,0,0c0,0,0,0,0,0
				c0,0,0,0,0,0c0,0,0,0,0,0s0,0,0,0c0,0,0,0,0,0c0,0,0,0,0,0c0,0,0,0,0,0c0,0,0,0,0,0c0,0,0,0-0.1,0h0c0,0,0,0,0,0c0,0,0,0,0,0
				c0,0,0,0,0,0c0,0,0,0,0,0c0,0,0,0,0,0c0,0,0,0,0,0c0,0,0,0,0,0c0,0,0,0,0,0c0,0,0,0,0,0l0,0c0,0,0,0-0.1,0c0,0,0,0,0,0
				c0,0,0,0,0,0c0,0,0,0,0,0c0,0,0,0,0,0c0,0,0,0,0,0c0,0,0,0,0,0c0,0,0,0,0,0s0,0,0,0c0,0,0,0,0,0c0,0,0,0,0,0c0,0,0,0,0,0s0,0,0,0
				c0,0,0,0,0,0c0,0,0,0,0,0c0,0,0,0,0,0c0,0,0,0,0,0s0,0,0,0c0,0,0,0,0,0c0,0,0,0,0,0c0,0,0,0,0,0c0,0,0,0,0,0s0,0,0,0c0,0,0,0,0,0
				c0,0,0,0,0,0c0,0,0,0,0,0c0,0,0,0,0,0c0,0,0,0,0,0c0,0,0,0,0,0c0,0,0,0,0,0c0,0,0,0,0,0c0,0,0,0,0,0c0,0,0,0,0,0c0,0,0,0,0,0
				c0,0,0,0,0,0c0,0,0,0-0.1,0l0,0c0,0,0,0,0,0c0,0,0,0,0,0c-0.1,0-0.2,0-0.3,0l0,0.3c0.8-0.1,1.6-0.2,2.4-0.3L156.1,93.9
				L156.1,93.9z M151.3,94.5C151.3,94.5,151.3,94.5,151.3,94.5C151.3,94.5,151.3,94.5,151.3,94.5C151.3,94.5,151.2,94.5,151.3,94.5
				C151.2,94.5,151.2,94.5,151.3,94.5C151.2,94.5,151.2,94.5,151.3,94.5C151.2,94.5,151.2,94.5,151.3,94.5c-0.1,0-0.1,0-0.1,0
				c0,0,0,0,0,0c0,0,0,0,0,0c0,0,0,0,0,0c0,0,0,0,0,0c0,0,0,0,0,0c0,0,0,0,0,0c0,0,0,0,0,0c0,0,0,0,0,0l0,0c0,0,0,0-0.1,0l0,0
				c0,0,0,0,0,0c0,0,0,0,0,0c0,0,0,0,0,0c0,0,0,0,0,0c0,0,0,0,0,0c0,0,0,0,0,0c0,0,0,0,0,0l0,0c0,0,0,0-0.1,0c0,0,0,0,0,0
				c0,0,0,0,0,0c0,0,0,0,0,0c0,0,0,0,0,0s0,0,0,0c0,0,0,0,0,0c0,0,0,0,0,0c0,0,0,0,0,0c0,0,0,0,0,0c0,0,0,0,0,0c0,0,0,0,0,0
				c0,0,0,0,0,0c0,0,0,0,0,0c0,0,0,0,0,0c0,0,0,0,0,0c0,0,0,0,0,0c0,0,0,0,0,0s0,0,0,0c0,0,0,0,0,0c0,0,0,0,0,0c0,0,0,0,0,0
				c0,0,0,0,0,0c0,0,0,0,0,0c0,0,0,0,0,0c0,0,0,0,0,0c0,0,0,0,0,0c0,0,0,0,0,0h0c0,0,0,0,0,0c0,0,0,0,0,0c0,0,0,0,0,0c0,0,0,0,0,0
				c0,0,0,0,0,0h0c0,0,0,0,0,0c0,0,0,0,0,0c-0.5,0.1-1.1,0.2-1.6,0.3l0.1,0.3c0.8-0.2,1.6-0.3,2.4-0.5L151.3,94.5L151.3,94.5z
				 M146.5,95.6c-0.8,0.2-1.6,0.4-2.3,0.7l0.1,0.3c0.8-0.2,1.5-0.5,2.3-0.7L146.5,95.6L146.5,95.6z M141.9,97
				c-0.3,0.1-0.7,0.3-1,0.4l0,0c0,0,0,0,0,0h0c0,0,0,0,0,0c0,0,0,0,0,0c0,0,0,0-0.1,0c0,0,0,0,0,0c0,0,0,0,0,0c0,0,0,0,0,0
				c0,0,0,0,0,0c0,0,0,0,0,0c0,0,0,0,0,0c0,0,0,0,0,0c0,0,0,0,0,0c0,0,0,0,0,0c0,0,0,0,0,0c0,0,0,0,0,0c0,0,0,0,0,0c0,0,0,0,0,0
				c0,0,0,0,0,0c0,0,0,0-0.1,0c0,0,0,0,0,0c0,0,0,0,0,0c0,0,0,0,0,0c0,0,0,0,0,0c0,0,0,0,0,0c0,0,0,0,0,0h0
				c-0.3,0.1-0.6,0.2-0.9,0.4l0.1,0.3c0.7-0.3,1.5-0.6,2.2-0.9L141.9,97L141.9,97z M137.4,98.9C137.4,98.9,137.3,98.9,137.4,98.9
				C137.3,98.9,137.3,98.9,137.4,98.9C137.3,98.9,137.3,98.9,137.4,98.9c-0.1,0-0.1,0-0.1,0c0,0,0,0,0,0c0,0,0,0,0,0c0,0,0,0,0,0
				c0,0,0,0,0,0c0,0,0,0,0,0c0,0,0,0,0,0c0,0,0,0,0,0c-0.6,0.3-1.2,0.6-1.8,0.9l0,0c0,0,0,0-0.1,0c0,0,0,0,0,0c0,0,0,0,0,0
				c0,0,0,0,0,0c0,0,0,0,0,0c0,0,0,0,0,0c0,0,0,0,0,0c0,0,0,0,0,0c0,0,0,0,0,0c0,0,0,0,0,0c0,0,0,0,0,0c0,0,0,0,0,0h0
				c0,0-0.1,0-0.1,0l0.2,0.3c0.7-0.4,1.4-0.7,2.2-1.1L137.4,98.9L137.4,98.9z M133.1,101.1C133.1,101.2,133.1,101.2,133.1,101.1
				L133.1,101.1c-0.1,0.1-0.2,0.1-0.3,0.2c0,0,0,0,0,0c0,0,0,0,0,0c0,0,0,0,0,0c0,0,0,0,0,0c0,0,0,0,0,0c0,0,0,0,0,0c0,0,0,0,0,0
				c0,0,0,0,0,0c0,0,0,0,0,0c0,0,0,0,0,0c0,0,0,0,0,0c0,0,0,0-0.1,0c0,0,0,0,0,0c0,0,0,0,0,0c0,0,0,0,0,0c0,0,0,0,0,0c0,0,0,0,0,0
				c0,0,0,0,0,0c0,0,0,0,0,0c0,0,0,0,0,0c0,0,0,0,0,0c0,0,0,0,0,0c0,0,0,0,0,0c0,0,0,0,0,0c0,0,0,0,0,0c0,0,0,0,0,0c0,0-0.1,0-0.1,0
				h0c0,0,0,0,0,0c0,0,0,0,0,0c0,0,0,0,0,0l0,0c0,0,0,0,0,0l0,0c-0.5,0.3-0.9,0.5-1.3,0.8l0.2,0.3c0.7-0.4,1.4-0.9,2.1-1.3
				L133.1,101.1L133.1,101.1z M129,103.8c-0.3,0.2-0.6,0.4-0.9,0.7v0c0,0,0,0,0,0l0,0c0,0,0,0,0,0l0,0c0,0-0.1,0.1-0.1,0.1l0,0
				c0,0,0,0,0,0h0c0,0,0,0,0,0l0,0c-0.3,0.2-0.6,0.4-0.8,0.6l0.2,0.3c0.6-0.5,1.3-1,1.9-1.4L129,103.8L129,103.8z M125.1,106.7
				c-0.5,0.4-1,0.9-1.5,1.3c0,0,0,0,0,0c0,0,0,0,0,0c0,0,0,0,0,0c0,0,0,0,0,0c0,0,0,0,0,0c0,0,0,0,0,0c0,0,0,0,0,0c0,0,0,0,0,0
				c0,0,0,0,0,0l0,0c-0.1,0.1-0.2,0.2-0.3,0.2l0.2,0.3c0.6-0.5,1.2-1.1,1.8-1.6L125.1,106.7L125.1,106.7z M121.6,110
				c-0.3,0.3-0.7,0.7-1,1c0,0,0,0,0,0c0,0,0,0,0,0c0,0,0,0,0,0c0,0,0,0,0,0c0,0,0,0,0,0c0,0,0,0,0,0c0,0,0,0,0,0c0,0,0,0,0,0
				c0,0,0,0,0,0c0,0,0,0,0,0c0,0,0,0,0,0s0,0,0,0c0,0,0,0,0,0s0,0,0,0c0,0,0,0,0,0c0,0,0,0,0,0c0,0,0,0,0,0l0,0c0,0,0,0,0,0
				c0,0,0,0,0,0c0,0,0,0,0,0c0,0,0,0,0,0c0,0,0,0,0,0h0c0,0,0,0,0,0h0c-0.2,0.2-0.3,0.4-0.5,0.5l0.3,0.2c0.5-0.6,1.1-1.2,1.7-1.7
				L121.6,110L121.6,110z M118.3,113.6c-0.3,0.3-0.6,0.7-0.8,1c0,0,0,0,0,0c0,0,0,0,0,0c0,0,0,0,0,0c0,0,0,0,0,0c0,0,0,0,0,0
				c0,0,0,0,0,0c0,0,0,0,0,0c0,0,0,0,0,0c0,0,0,0,0,0c0,0,0,0,0,0c0,0,0,0,0,0c0,0,0,0,0,0c0,0,0,0,0,0c0,0,0,0,0,0c0,0,0,0,0,0
				c0,0,0,0,0,0c0,0,0,0,0,0c0,0,0,0,0,0c0,0,0,0,0,0c0,0,0,0,0,0c0,0,0,0,0,0l0,0c-0.2,0.2-0.4,0.5-0.5,0.7l0.3,0.2
				c0.5-0.6,1-1.3,1.5-1.9L118.3,113.6L118.3,113.6z M115.3,117.5c0,0.1-0.1,0.1-0.1,0.2l0,0c0,0,0,0,0,0c0,0,0,0,0,0c0,0,0,0,0,0
				c0,0,0,0,0,0c0,0,0,0,0,0c0,0,0,0,0,0c0,0,0,0,0,0c0,0,0,0,0,0c0,0,0,0,0,0c0,0,0,0,0,0c0,0,0,0,0,0c0,0,0,0,0,0c0,0,0,0,0,0
				c0,0,0,0,0,0c0,0,0,0,0,0c0,0,0,0,0,0c0,0,0,0,0,0c0,0,0,0,0,0c0,0,0,0,0,0c0,0,0,0,0,0c0,0,0,0,0,0c0,0,0,0,0,0c0,0,0,0,0,0
				c0,0,0,0,0,0c0,0,0,0,0,0c0,0,0,0,0,0c0,0,0,0,0,0c0,0,0,0,0,0l0,0c-0.4,0.5-0.7,1.1-1.1,1.6l0.3,0.2c0.4-0.7,0.9-1.4,1.3-2
				L115.3,117.5L115.3,117.5z M112.7,121.6c-0.2,0.3-0.4,0.6-0.5,0.9c0,0,0,0,0,0c0,0,0,0,0,0c0,0,0,0,0,0c0,0,0,0,0,0c0,0,0,0,0,0
				c0,0,0,0,0,0c0,0,0,0,0,0c0,0,0,0,0,0c0,0,0,0,0,0c0,0,0,0,0,0c0,0,0,0,0,0l0,0c-0.2,0.4-0.4,0.7-0.6,1.1l0.3,0.2
				c0.4-0.7,0.8-1.4,1.2-2.1L112.7,121.6L112.7,121.6z M110.5,125.9c-0.3,0.6-0.5,1.2-0.8,1.8c0,0,0,0,0,0c0,0,0,0,0,0c0,0,0,0,0,0
				c0,0,0,0,0,0c0,0,0,0,0,0c0,0,0,0,0,0c0,0,0,0,0,0c0,0,0,0,0,0s0,0,0,0c0,0,0,0,0,0c0,0,0,0,0,0c0,0,0,0,0,0
				c0,0.1-0.1,0.2-0.1,0.3l0.3,0.1c0.3-0.7,0.6-1.5,1-2.2L110.5,125.9L110.5,125.9z M108.6,130.4c-0.2,0.6-0.4,1.2-0.6,1.8l0,0
				c0,0,0,0,0,0l0,0c0,0,0,0,0,0l0,0c0,0,0,0.1,0,0.1c0,0,0,0,0,0c0,0,0,0,0,0c0,0,0,0,0,0c0,0,0,0,0,0c0,0,0,0,0,0c0,0,0,0,0,0
				c0,0,0,0,0,0c0,0,0,0,0,0c0,0,0,0,0,0c0,0,0,0,0,0c0,0,0,0,0,0c0,0,0,0,0,0c0,0,0,0,0,0c0,0,0,0,0,0c0,0,0,0,0,0c0,0,0,0,0,0
				c0,0,0,0,0,0c0,0,0,0,0,0c0,0,0,0,0,0c0,0,0,0,0,0c0,0,0,0,0,0c0,0,0,0,0,0c0,0,0,0,0,0c0,0,0,0,0,0c0,0,0,0,0,0c0,0,0,0,0,0
				c0,0,0,0,0,0l0,0c0,0,0,0,0,0.1v0c0,0,0,0,0,0c0,0,0,0,0,0c0,0,0,0,0,0l0,0c0,0,0,0,0,0v0c0,0,0,0,0,0l0.3,0.1
				c0.2-0.8,0.5-1.5,0.8-2.3L108.6,130.4L108.6,130.4z M107.2,135L107.2,135C107.2,135,107.2,135,107.2,135
				C107.2,135,107.2,135,107.2,135C107.2,135,107.2,135,107.2,135C107.2,135,107.2,135,107.2,135C107.2,135,107.2,135.1,107.2,135
				C107.2,135.1,107.2,135.1,107.2,135C107.2,135.1,107.2,135.1,107.2,135C107.2,135.1,107.2,135.1,107.2,135
				C107.2,135.1,107.2,135.1,107.2,135c0,0.1,0,0.1,0,0.1c0,0,0,0,0,0c0,0,0,0,0,0c0,0,0,0,0,0c0,0,0,0,0,0c0,0,0,0,0,0c0,0,0,0,0,0
				c0,0,0,0,0,0c0,0,0,0,0,0c0,0,0,0,0,0c0,0,0,0,0,0c0,0,0,0,0,0c0,0,0,0,0,0c0,0,0,0,0,0v0c0,0,0,0,0,0.1l0,0c0,0,0,0,0,0
				c0,0,0,0,0,0c0,0,0,0,0,0c0,0,0,0,0,0c0,0,0,0,0,0c0,0,0,0,0,0c0,0,0,0,0,0c0,0,0,0,0,0c0,0,0,0.1,0,0.1l0,0c0,0,0,0,0,0v0
				c0,0,0,0,0,0l0,0c-0.2,0.6-0.3,1.2-0.4,1.8l0.3,0.1c0.2-0.8,0.4-1.6,0.6-2.3L107.2,135L107.2,135z M106.2,139.7
				c-0.1,0.6-0.2,1.2-0.3,1.8c0,0,0,0,0,0c0,0,0,0,0,0v0c0,0,0,0,0,0c0,0,0,0,0,0c0,0,0,0,0,0v0c0,0,0,0,0,0.1v0c0,0,0,0,0,0
				c0,0,0,0,0,0c0,0,0,0,0,0c0,0,0,0,0,0c0,0,0,0,0,0c0,0,0,0,0,0c0,0,0,0,0,0c0,0,0,0,0,0c0,0,0,0,0,0c0,0,0,0,0,0c0,0,0,0,0,0
				c0,0,0,0,0,0v0c0,0,0,0,0,0c0,0,0,0,0,0c0,0,0,0,0,0c0,0,0,0,0,0c0,0,0,0,0,0c0,0,0,0,0,0c0,0,0,0,0,0c0,0,0,0,0,0
				c0,0.1,0,0.2,0,0.3l0.3,0c0.1-0.8,0.2-1.6,0.4-2.4L106.2,139.7L106.2,139.7z M105.6,144.6c-0.1,0.8-0.1,1.6-0.1,2.4l0.3,0
				c0-0.8,0.1-1.6,0.1-2.4L105.6,144.6L105.6,144.6z M105.7,149.4l-0.3,0c0,0,0,0,0,0c0,0,0,0,0,0c0,0,0,0,0,0c0,0,0,0,0,0
				c0,0,0,0,0,0c0,0,0,0,0,0c0,0,0,0,0,0c0,0,0,0,0,0c0,0,0,0,0,0c0,0,0,0,0,0c0,0,0,0,0,0c0,0,0,0,0,0c0,0,0,0,0,0c0,0,0,0,0,0
				c0,0,0,0,0,0c0,0,0,0,0,0c0,0,0,0,0,0c0,0,0,0,0,0c0,0,0,0,0,0c0,0,0,0,0,0c0,0,0,0,0,0c0,0,0,0,0,0c0,0,0,0,0,0c0,0,0,0,0,0
				c0,0,0,0,0,0c0,0,0,0,0,0c0,0,0,0,0,0c0,0,0,0,0,0c0,0,0,0,0,0c0,0,0,0,0,0c0,0,0,0,0,0.1c0,0,0,0,0,0c0,0,0,0,0,0c0,0,0,0,0,0
				c0,0,0,0,0,0c0,0,0,0,0,0c0,0,0,0.1,0,0.1v0c0,0,0,0,0,0l0,0c0,0,0,0.1,0,0.1l0,0c0,0,0,0.1,0,0.1c0,0,0,0,0,0c0,0,0,0.1,0,0.1
				l0,0c0,0,0,0.1,0,0.1c0,0,0,0,0,0c0,0,0,0,0,0c0,0,0,0,0,0c0,0,0,0.1,0,0.1c0,0,0,0,0,0c0,0,0,0,0,0v0c0,0,0,0,0,0l0,0
				c0,0,0,0.1,0,0.1c0,0,0,0,0,0c0,0,0,0,0,0c0,0,0,0,0,0c0,0,0,0,0,0c0,0,0,0,0,0c0,0,0,0,0,0.1c0,0,0,0,0,0c0,0,0,0,0,0
				c0,0,0,0,0,0c0,0,0,0,0,0c0,0,0,0,0,0c0,0,0,0,0,0c0,0,0,0,0,0c0,0,0,0,0,0c0,0,0,0,0,0c0,0,0,0,0,0c0,0,0,0,0,0c0,0,0,0,0,0
				c0,0,0,0,0,0c0,0,0,0,0,0c0,0,0,0,0,0c0,0,0,0,0,0c0,0,0,0,0,0c0,0,0,0,0,0c0,0,0,0,0,0c0,0,0,0,0,0c0,0,0,0,0,0c0,0,0,0,0,0
				c0,0,0,0,0,0c0,0,0,0,0,0s0,0,0,0c0,0,0,0,0,0c0,0,0,0,0,0c0,0,0,0,0,0c0,0,0,0,0,0c0,0,0,0,0,0c0,0,0,0,0,0c0,0,0,0,0,0
				c0,0,0,0,0,0c0,0,0,0,0,0c0,0,0,0,0,0c0,0,0,0,0,0c0,0,0,0,0,0c0,0,0,0,0,0c0,0,0,0,0,0c0,0,0,0,0,0c0,0,0,0,0,0s0,0,0,0
				c0,0,0,0,0,0c0,0,0,0,0,0c0,0,0,0,0,0c0,0,0,0,0,0c0,0,0,0,0,0c0,0,0,0,0,0c0,0,0,0,0,0c0,0,0,0,0,0c0,0,0,0,0,0c0,0,0,0,0,0
				c0,0,0,0,0,0c0,0,0,0,0,0c0,0,0,0,0,0c0,0,0,0,0,0c0,0,0,0,0,0c0,0,0,0,0,0c0,0,0,0,0,0v0c0,0,0,0,0,0c0,0,0,0,0,0c0,0,0,0,0,0
				c0,0,0,0,0,0c0,0,0,0,0,0c0,0,0,0,0,0c0,0,0,0,0,0c0,0,0,0,0,0c0,0,0,0,0,0.1v0c0,0,0,0,0,0v0c0,0,0,0,0,0c0,0,0,0,0,0
				c0,0,0,0,0,0.1l0.3,0C105.7,151,105.7,150.2,105.7,149.4L105.7,149.4z M105.9,154.2l-0.3,0c0,0,0,0.1,0,0.1l0,0c0,0,0,0,0,0
				c0,0,0,0,0,0c0,0,0,0,0,0c0,0,0,0,0,0c0,0,0,0,0,0c0,0,0,0,0,0c0,0,0,0,0,0c0,0,0,0,0,0c0,0,0,0,0,0c0,0,0,0,0,0c0,0,0,0,0,0
				c0,0,0,0,0,0c0,0,0,0,0,0c0,0,0,0,0,0c0,0,0,0,0,0c0,0,0,0,0,0c0,0,0,0,0,0c0,0,0,0,0,0c0,0,0,0,0,0c0,0,0,0,0,0c0,0,0,0,0,0
				c0,0,0,0,0,0c0,0,0,0,0,0c0,0,0,0,0,0c0,0,0,0,0,0c0,0,0,0,0,0c0,0,0,0,0,0c0,0,0,0,0,0c0,0,0,0,0,0c0,0,0,0,0,0c0,0,0,0,0,0
				c0,0,0,0,0,0.1c0,0,0,0,0,0c0,0,0,0,0,0c0,0,0,0,0,0c0,0,0,0,0,0c0,0,0,0,0,0c0,0,0,0,0,0c0,0,0,0,0,0c0,0,0,0,0,0c0,0,0,0,0,0
				c0,0,0,0,0,0.1c0,0,0,0,0,0c0,0,0,0,0,0c0,0,0,0,0,0c0,0,0,0,0,0c0,0,0,0,0,0c0,0,0,0,0,0c0,0,0,0,0,0c0,0,0,0,0,0.1c0,0,0,0,0,0
				c0,0,0,0,0,0c0,0,0,0,0,0s0,0,0,0c0,0,0,0,0,0c0,0,0,0,0,0c0,0,0,0,0,0c0,0,0,0,0,0c0,0,0,0,0,0c0,0,0,0,0,0c0,0,0,0,0,0
				c0,0,0,0,0,0c0,0,0,0,0,0c0,0,0,0,0,0s0,0,0,0s0,0,0,0c0,0,0,0,0,0c0,0,0,0,0,0c0,0,0,0,0,0c0,0,0,0,0,0c0,0,0,0,0,0c0,0,0,0,0,0
				c0,0,0,0,0,0c0,0,0,0,0,0c0,0,0,0,0,0c0,0,0,0,0,0c0,0,0,0,0,0c0,0,0,0,0,0c0,0,0,0,0,0c0,0,0,0,0,0c0,0,0,0,0,0c0,0,0,0,0,0
				c0,0,0,0,0,0c0,0,0,0,0,0c0,0,0,0,0,0c0,0,0,0,0,0c0,0,0,0,0,0c0,0,0,0,0,0s0,0,0,0c0,0,0,0,0,0c0,0,0,0,0,0c0,0,0,0,0,0
				c0,0,0,0,0,0c0,0,0,0,0,0c0,0,0,0,0,0v0c0,0,0,0.1,0,0.1l0,0c0,0,0,0,0,0c0,0,0,0,0,0c0,0,0,0,0,0v0c0,0,0,0,0,0l0,0
				c0,0.2,0.1,0.4,0.1,0.7l0,0c0,0,0,0,0,0l0,0c0,0,0,0.1,0,0.1l0,0c0,0,0,0,0,0s0,0,0,0c0,0,0,0,0,0c0,0,0,0,0,0s0,0,0,0
				c0,0,0,0,0,0c0,0,0,0,0,0c0,0,0,0,0,0c0,0,0,0,0,0c0,0,0,0,0,0c0,0,0,0,0,0c0,0,0,0,0,0c0,0,0,0,0,0c0,0,0,0,0,0c0,0,0,0,0,0
				c0,0,0,0,0,0c0,0,0,0,0,0c0,0,0,0,0,0l0.3,0C106.1,155.8,106,155,105.9,154.2L105.9,154.2z M106.6,159l-0.3,0.1
				c0,0.2,0.1,0.4,0.1,0.5c0,0,0,0,0,0c0,0,0,0,0,0c0,0,0,0,0,0c0,0,0,0,0,0c0,0,0,0,0,0c0,0,0,0,0,0c0,0,0,0,0,0c0,0,0,0,0,0
				c0,0,0,0,0,0c0,0,0,0,0,0c0,0,0,0,0,0c0,0,0,0,0,0c0,0,0,0,0,0s0,0,0,0c0,0,0,0,0,0c0,0,0,0,0,0c0,0,0,0,0,0c0,0,0,0,0,0
				c0,0,0,0,0,0.1c0,0,0,0,0,0c0,0,0,0,0,0c0,0,0,0,0,0c0,0,0,0,0,0v0c0,0,0,0,0,0c0,0,0,0,0,0c0.1,0.5,0.2,1,0.3,1.5l0.3-0.1
				C106.9,160.6,106.7,159.8,106.6,159L106.6,159z M107.7,163.7l-0.3,0.1c0.1,0.3,0.1,0.5,0.2,0.8v0c0,0,0,0,0,0c0,0,0,0,0,0
				c0,0,0,0,0,0c0,0,0,0,0,0c0,0,0,0,0,0c0,0,0,0,0,0c0,0,0,0,0,0c0,0,0,0,0,0c0,0,0,0,0,0c0,0,0,0,0,0c0,0,0,0,0,0c0,0,0,0,0,0
				c0,0,0,0,0,0s0,0,0,0c0,0,0,0,0,0c0,0,0,0,0,0c0,0,0,0,0,0c0,0,0,0,0,0c0,0,0,0,0,0c0,0,0,0,0,0c0,0,0,0,0,0
				c0.1,0.5,0.3,0.9,0.4,1.4l0.3-0.1C108.1,165.3,107.9,164.5,107.7,163.7L107.7,163.7z M109.1,168.3l-0.3,0.1
				c0.1,0.2,0.2,0.4,0.2,0.6l0,0c0,0,0,0,0,0c0,0,0,0,0,0c0,0,0,0,0,0c0,0,0,0,0,0c0,0,0,0,0,0c0,0,0,0,0,0c0,0,0,0.1,0,0.1
				c0,0,0,0,0,0c0,0,0,0,0,0c0,0,0,0,0,0c0,0,0,0,0,0s0,0,0,0c0,0,0,0,0,0s0,0,0,0c0,0,0,0,0,0c0,0,0,0,0,0c0,0,0,0,0,0c0,0,0,0,0,0
				c0,0,0,0,0,0v0c0,0,0,0,0,0c0,0,0,0,0,0c0,0,0,0,0,0c0,0,0,0,0,0c0,0,0,0,0,0s0,0,0,0s0,0,0,0c0,0,0,0,0,0c0,0,0,0,0,0
				c0,0,0,0,0,0c0,0,0,0,0,0c0,0,0,0,0,0c0,0,0,0,0,0c0,0,0,0,0,0c0,0,0,0,0,0c0,0,0,0,0,0c0,0,0,0,0,0c0,0,0,0,0,0c0,0,0,0,0,0
				c0,0,0,0,0,0c0,0,0,0,0,0c0,0,0,0,0,0c0,0,0,0,0,0s0,0,0,0c0,0,0,0,0,0c0,0,0,0,0,0c0,0,0,0,0,0c0,0,0,0,0,0c0,0,0,0,0,0
				c0,0,0,0,0,0c0,0,0,0,0,0c0,0,0,0,0,0c0,0,0,0,0,0l0,0c0,0,0,0,0,0c0,0,0,0,0,0c0,0,0,0,0,0c0,0,0,0,0,0c0,0,0,0,0,0c0,0,0,0,0,0
				c0,0,0,0,0,0c0,0,0,0,0,0c0,0,0,0,0,0c0,0,0,0,0,0c0,0,0,0,0,0c0,0,0,0,0,0c0,0,0,0,0,0c0,0,0,0,0,0c0,0,0,0,0,0c0,0,0,0,0,0
				c0,0,0,0,0,0c0,0,0,0,0,0c0,0,0,0,0,0c0,0,0,0,0,0c0,0,0,0,0,0c0,0,0,0,0,0c0,0,0,0,0,0c0,0,0,0,0,0c0,0,0,0,0,0c0,0,0,0,0,0
				c0,0,0,0,0,0c0,0,0,0,0,0c0,0,0,0,0,0c0,0,0,0,0,0c0,0,0,0,0,0.1l0,0c0,0,0,0,0,0c0,0,0,0,0,0c0,0,0,0,0,0c0,0,0,0,0,0
				c0,0,0,0,0,0c0,0,0,0,0,0c0,0,0,0,0,0l0,0c0.1,0.2,0.2,0.4,0.2,0.6l0.3-0.1C109.7,169.8,109.4,169.1,109.1,168.3L109.1,168.3z
				 M111,172.8l-0.3,0.1c0.1,0.3,0.3,0.5,0.4,0.8c0,0,0,0,0,0c0,0,0,0.1,0.1,0.1c0,0,0,0,0,0c0,0,0,0,0,0c0,0,0,0,0,0c0,0,0,0,0,0
				c0,0,0,0,0,0c0,0,0,0,0,0c0,0,0,0,0,0c0,0,0,0,0,0c0,0,0,0,0,0c0,0,0,0,0,0c0,0,0,0,0,0c0,0,0,0,0,0c0,0,0,0,0,0c0,0,0,0,0,0v0
				c0,0,0,0,0,0c0,0,0,0,0,0c0,0,0,0,0,0c0,0,0,0,0,0c0,0,0,0,0,0c0,0,0,0,0,0c0,0,0,0,0,0c0,0,0,0,0,0c0,0,0,0,0,0c0,0,0,0,0,0
				c0,0,0,0,0,0c0,0,0,0,0,0c0,0,0,0,0,0c0,0,0,0,0,0c0,0,0,0,0,0c0,0,0,0,0,0c0,0,0,0,0,0c0,0,0,0,0,0c0,0,0,0,0,0c0,0,0,0,0,0
				c0,0,0,0,0,0c0,0,0,0,0,0c0,0,0,0,0,0c0,0,0,0,0,0c0,0,0,0,0,0c0,0,0,0,0,0s0,0,0,0s0,0,0,0c0,0,0,0,0,0c0,0,0,0,0,0c0,0,0,0,0,0
				s0,0,0,0c0,0,0,0,0,0c0,0,0,0,0,0c0,0,0,0,0,0c0,0,0,0,0,0c0,0,0,0,0,0c0,0,0,0,0,0c0,0,0,0,0,0c0,0,0,0,0,0c0,0,0,0,0,0
				c0,0,0,0,0,0c0,0,0,0,0,0c0,0,0,0,0,0s0,0,0,0s0,0,0,0c0,0,0,0,0,0c0,0,0,0,0,0c0,0,0,0,0,0c0,0,0,0,0,0c0,0,0,0,0,0c0,0,0,0,0,0
				c0.1,0.2,0.2,0.4,0.3,0.6l0.3-0.2C111.7,174.2,111.3,173.5,111,172.8L111,172.8z M113.3,177l-0.3,0.2v0c0,0,0,0,0,0l0,0
				c0,0,0,0,0,0c0,0,0,0,0,0c0,0,0,0,0,0c0,0,0,0,0,0c0,0,0,0,0,0c0,0,0,0,0,0c0,0,0,0,0,0c0,0,0,0,0,0c0,0,0,0,0,0c0,0,0,0,0,0
				c0,0,0,0,0,0c0,0,0,0,0,0c0,0,0,0,0,0c0.4,0.6,0.8,1.3,1.2,1.9l0.3-0.2C114.1,178.4,113.7,177.7,113.3,177L113.3,177z
				 M115.9,181.1l-0.3,0.2c0.1,0.1,0.2,0.2,0.3,0.4l0,0c0,0,0,0,0,0l0,0c0,0,0,0,0,0c0,0,0,0,0,0c0,0,0,0,0,0l0,0c0,0,0,0.1,0.1,0.1
				v0c0,0,0,0,0,0c0,0,0,0,0,0c0,0,0,0,0,0l0,0c0,0,0,0,0,0l0,0c0,0,0,0,0,0c0,0,0,0,0,0c0,0,0,0,0,0v0c0,0,0,0.1,0.1,0.1
				c0,0,0,0,0,0c0,0,0,0,0,0c0,0,0,0,0,0c0,0,0,0,0,0c0,0,0,0,0,0c0,0,0,0,0,0c0,0,0,0,0,0c0,0,0,0,0,0c0,0,0,0,0,0c0,0,0,0,0,0
				c0,0,0,0,0,0c0,0,0,0,0,0l0,0c0,0,0,0.1,0.1,0.1v0c0,0,0,0,0,0c0,0,0,0,0,0c0,0,0,0,0,0c0,0,0,0,0,0c0,0,0,0,0,0c0,0,0,0,0,0
				c0,0,0,0,0,0c0,0,0,0,0,0c0,0,0,0,0,0c0,0,0,0,0,0c0,0,0,0,0,0l0,0c0,0,0,0,0,0.1l0,0c0,0,0,0,0,0l0,0c0,0,0,0,0,0c0,0,0,0,0,0
				c0,0,0,0,0,0c0,0,0,0,0,0c0,0,0,0,0,0l0,0c0,0,0,0,0,0c0,0,0,0,0,0c0,0,0,0,0,0v0c0,0,0.1,0.1,0.1,0.1l0,0c0,0,0,0,0,0l0,0
				c0,0,0,0,0,0l0,0c0,0,0,0,0,0v0c0.2,0.2,0.4,0.5,0.5,0.7l0.3-0.2C116.8,182.4,116.3,181.7,115.9,181.1L115.9,181.1z M118.8,184.9
				l-0.3,0.2c0.4,0.4,0.8,0.9,1.1,1.3l0,0c0,0,0,0,0,0c0,0,0,0,0,0c0,0,0,0,0,0c0,0,0,0,0,0c0,0,0,0,0,0c0,0,0,0,0,0c0,0,0,0,0,0
				c0,0,0,0,0,0c0,0,0,0,0,0c0,0,0,0,0,0c0,0,0,0,0,0c0,0,0,0,0,0c0,0,0,0,0,0c0,0,0,0,0,0c0,0,0,0,0,0c0,0,0,0,0,0c0,0,0,0,0,0
				c0,0,0,0,0,0c0,0,0,0,0,0c0,0,0,0,0,0c0,0,0,0,0,0c0,0,0,0,0,0l0,0c0,0,0,0,0,0l0,0c0.1,0.1,0.2,0.2,0.3,0.3l0.3-0.2
				C119.9,186.1,119.4,185.5,118.8,184.9L118.8,184.9z M122.1,188.4l-0.2,0.2c0,0,0,0,0,0c0,0,0,0,0,0c0,0,0,0,0,0c0,0,0,0,0,0
				c0,0,0,0,0,0c0,0,0,0,0,0c0,0,0,0,0,0c0,0,0,0,0,0c0,0,0,0,0,0c0,0,0,0,0,0c0,0,0,0,0,0c0,0,0,0,0,0c0,0,0,0,0,0c0,0,0,0,0,0
				c0,0,0,0,0,0c0,0,0,0,0,0c0,0,0,0,0,0c0,0,0,0,0,0l0,0c0,0,0,0,0.1,0.1l0,0c0,0,0,0,0,0c0,0,0,0,0,0c0,0,0,0,0,0c0,0,0,0,0,0
				c0,0,0,0,0,0l0,0c0,0,0,0,0,0c0,0,0,0,0,0c0,0,0,0,0,0c0,0,0,0,0,0c0,0,0,0,0,0l0,0c0,0,0,0,0,0l0,0c0,0,0,0,0.1,0.1l0,0
				c0,0,0,0,0,0c0,0,0,0,0,0c0,0,0,0,0,0c0,0,0,0,0,0c0,0,0,0,0,0c0,0,0,0,0,0c0,0,0,0,0,0c0,0,0,0,0,0c0,0,0,0,0,0c0,0,0,0,0,0
				c0,0,0,0,0,0c0,0,0,0,0,0c0,0,0,0,0,0c0,0,0,0,0,0c0,0,0,0,0,0c0,0,0,0,0,0c0,0,0,0,0,0c0,0,0,0,0,0c0,0,0,0,0,0c0,0,0,0,0,0
				c0,0,0,0,0,0c0,0,0,0,0,0c0,0,0,0,0,0c0,0,0,0,0,0c0,0,0,0,0,0c0,0,0,0,0,0c0,0,0,0,0,0c0,0,0,0,0,0c0,0,0,0,0,0c0,0,0,0,0,0
				c0,0,0,0,0,0c0,0,0,0,0,0c0,0,0,0,0,0c0,0,0.1,0.1,0.1,0.1v0c0,0,0,0,0,0l0,0c0,0,0,0,0,0c0,0,0,0,0,0c0.2,0.2,0.4,0.4,0.6,0.5
				c0,0,0,0,0,0c0,0,0,0,0,0c0,0,0,0,0,0c0,0,0,0,0,0c0,0,0,0,0,0c0,0,0,0,0,0c0,0,0,0,0,0c0,0,0,0,0,0c0,0,0,0,0,0c0,0,0,0,0,0
				c0,0,0,0,0,0c0,0,0,0,0,0c0,0,0,0,0,0l0,0c0.1,0.1,0.2,0.2,0.4,0.3l0.2-0.3C123.3,189.6,122.7,189,122.1,188.4L122.1,188.4z
				 M125.7,191.7l-0.2,0.3c0.6,0.5,1.3,1,1.9,1.5l0.2-0.3C127,192.7,126.3,192.2,125.7,191.7L125.7,191.7z M129.6,194.6l-0.2,0.3
				c0,0,0,0,0,0c0,0,0,0,0,0c0,0,0,0,0,0c0,0,0,0,0,0c0,0,0,0,0,0c0,0,0,0,0,0c0,0,0,0,0,0c0,0,0,0,0,0c0,0,0,0,0,0c0,0,0,0,0,0
				c0,0,0,0,0,0c0,0,0,0,0,0c0,0,0,0,0,0c0,0,0,0,0,0c0,0,0,0,0,0c0,0,0,0,0,0c0,0,0,0,0,0c0,0,0,0,0,0c0,0,0,0,0,0l0,0
				c0.5,0.3,1,0.7,1.5,1c0,0,0,0,0,0c0,0,0,0,0,0c0,0,0,0,0,0c0,0,0,0,0,0c0,0,0,0,0,0c0,0,0,0,0,0c0,0,0,0,0,0c0,0,0,0,0,0
				c0,0,0,0,0,0c0,0,0,0,0,0c0,0,0,0,0,0l0,0c0.1,0.1,0.2,0.1,0.3,0.2l0.2-0.3C130.9,195.5,130.2,195.1,129.6,194.6L129.6,194.6z
				 M133.7,197.2l-0.2,0.3c0.7,0.4,1.4,0.8,2.1,1.2l0.2-0.3C135.1,197.9,134.3,197.6,133.7,197.2L133.7,197.2z M138,199.4l-0.1,0.3
				c0.2,0.1,0.4,0.2,0.6,0.3c0,0,0,0,0,0c0,0,0,0,0,0c0,0,0,0,0,0c0,0,0,0,0,0c0,0,0,0,0,0c0,0,0,0,0,0c0,0,0,0,0,0c0,0,0,0,0,0
				c0,0,0,0,0,0c0,0,0,0,0,0c0,0,0,0,0,0c0,0,0,0,0,0c0,0,0,0,0,0c0,0,0,0,0,0c0,0,0,0,0,0c0,0,0,0,0,0c0,0,0,0,0,0c0,0,0,0,0,0
				c0,0,0,0,0,0l0,0c0,0,0,0,0,0c0,0,0,0,0,0c0,0,0,0,0,0l0,0c0.4,0.2,0.8,0.3,1.2,0.5c0,0,0,0,0,0c0,0,0,0,0,0c0,0,0,0,0,0
				c0,0,0,0,0,0c0,0,0,0,0,0c0,0,0,0,0,0c0,0,0,0,0,0c0,0,0,0,0,0c0,0,0,0,0,0c0,0,0,0,0,0c0,0,0,0,0,0h0c0,0,0,0,0,0c0,0,0,0,0,0
				c0,0,0,0,0,0c0,0,0,0,0,0c0,0,0,0,0,0c0,0,0,0,0,0c0,0,0,0,0,0c0,0,0,0,0,0c0,0,0,0,0,0l0,0c0,0,0.1,0,0.1,0l0.1-0.3
				C139.4,200,138.7,199.7,138,199.4L138,199.4z M142.4,201.2l-0.1,0.3c0.2,0.1,0.3,0.1,0.5,0.2c0,0,0,0,0,0c0,0,0,0,0,0l0,0
				c0,0,0.1,0,0.1,0h0c0,0,0,0,0,0c0,0,0,0,0,0c0,0,0,0,0,0c0,0,0,0,0,0c0,0,0,0,0,0c0,0,0,0,0,0c0,0,0,0,0,0c0,0,0,0,0,0
				c0,0,0,0,0,0c0,0,0,0,0,0c0,0,0,0,0,0l0,0c0,0,0,0,0,0c0,0,0,0,0,0c0,0,0,0,0,0c0,0,0,0,0,0c0,0,0,0,0,0c0,0,0,0,0,0c0,0,0,0,0,0
				c0,0,0,0,0,0c0,0,0,0,0,0c0,0,0,0,0,0c0,0,0,0,0,0c0,0,0,0,0,0c0,0,0,0,0,0c0,0,0,0,0,0c0,0,0,0,0,0c0,0,0,0,0,0c0,0,0,0,0,0
				c0,0,0,0,0,0c0,0,0,0,0,0c0,0,0,0,0,0c0,0,0,0,0,0c0,0,0,0,0,0c0,0,0,0,0,0c0,0,0,0,0,0c0,0,0,0,0,0s0,0,0,0c0,0,0,0,0,0
				c0,0,0,0,0,0l0,0c0,0,0,0,0.1,0l0,0c0,0,0,0,0,0c0,0,0,0,0,0c0,0,0,0,0,0l0,0c0,0,0,0,0,0c0,0,0,0,0,0c0,0,0,0,0,0l0,0
				c0.4,0.1,0.7,0.2,1.1,0.4l0.1-0.3C144,201.7,143.2,201.5,142.4,201.2L142.4,201.2z M147,202.6l-0.1,0.3c0.8,0.2,1.6,0.4,2.4,0.6
				l0.1-0.3C148.6,203,147.8,202.8,147,202.6L147,202.6z M151.8,203.6l-0.1,0.3c0,0,0,0,0,0h0c0,0,0,0,0,0c0,0,0,0,0,0c0,0,0,0,0,0
				c0,0,0,0,0,0c0,0,0,0,0,0l0,0c0.8,0.1,1.5,0.2,2.3,0.3l0-0.3C153.4,203.9,152.6,203.7,151.8,203.6L151.8,203.6z M156.6,204.2
				l0,0.3c0.8,0.1,1.6,0.1,2.4,0.1l0-0.3C158.2,204.3,157.4,204.3,156.6,204.2L156.6,204.2z M163.8,204.3c-0.8,0-1.6,0.1-2.4,0.1
				l0,0.3c0.5,0,1,0,1.6,0l0,0c0,0,0,0,0,0c0,0,0,0,0,0c0,0,0,0,0,0h0c0,0,0,0,0,0l0,0c0,0,0,0,0,0c0,0,0,0,0,0c0,0,0,0,0,0
				c0,0,0,0,0,0c0,0,0,0,0,0s0,0,0,0c0,0,0,0,0,0c0,0,0,0,0,0c0,0,0,0,0,0c0,0,0,0,0,0c0,0,0,0,0,0c0,0,0,0,0,0c0,0,0,0,0,0
				c0,0,0,0,0,0c0,0,0,0,0,0c0,0,0,0,0,0c0,0,0,0,0,0c0,0,0,0,0,0h0c0.2,0,0.4,0,0.6,0L163.8,204.3L163.8,204.3z M168.6,203.8
				c-0.8,0.1-1.6,0.2-2.4,0.3l0,0.3c0.8-0.1,1.6-0.2,2.4-0.3L168.6,203.8L168.6,203.8z M173.4,203c-0.8,0.2-1.6,0.3-2.4,0.5l0.1,0.3
				c0.8-0.1,1.6-0.3,2.4-0.5L173.4,203L173.4,203z M178,201.7c-0.8,0.2-1.5,0.5-2.3,0.7l0.1,0.3c0.8-0.2,1.6-0.5,2.3-0.7L178,201.7
				L178,201.7z M182.6,200c-0.7,0.3-1.5,0.6-2.2,0.9l0.1,0.3c0.6-0.2,1.2-0.5,1.9-0.7h0c0,0,0,0,0,0c0,0,0,0,0,0c0,0,0,0,0,0
				c0,0,0,0,0,0c0,0,0,0,0,0c0,0,0,0,0,0c0,0,0,0,0,0c0,0,0,0,0,0c0,0,0,0,0,0c0,0,0,0,0,0c0,0,0,0,0,0c0.1,0,0.2-0.1,0.3-0.1
				L182.6,200L182.6,200z M186.9,197.9c-0.7,0.4-1.4,0.7-2.2,1.1l0.2,0.3c0.2-0.1,0.3-0.2,0.5-0.3l0,0c0,0,0,0,0,0l0,0c0,0,0,0,0,0
				c0,0,0,0,0,0c0,0,0,0,0,0c0,0,0,0,0,0c0,0,0,0,0,0c0,0,0,0,0,0c0,0,0,0,0.1,0c0,0,0,0,0,0c0,0,0,0,0,0c0,0,0,0,0,0c0,0,0,0,0,0
				c0,0,0,0,0,0c0,0,0,0,0,0c0,0,0,0,0,0c0,0,0,0,0,0c0,0,0,0,0,0c0,0,0,0,0,0c0,0,0,0,0,0c0,0,0,0,0,0c0,0,0,0,0,0l0,0c0,0,0,0,0,0
				c0,0,0,0,0,0c0,0,0,0,0,0c0,0,0,0,0,0c0,0,0,0,0,0c0,0,0,0,0,0c0,0,0,0,0,0c0,0,0,0,0,0c0,0,0,0,0,0l0,0c0,0,0,0,0,0c0,0,0,0,0,0
				c0.4-0.2,0.8-0.4,1.3-0.7L186.9,197.9L186.9,197.9z M191.1,195.4c-0.7,0.4-1.4,0.9-2.1,1.3l0.2,0.3c0.2-0.1,0.4-0.2,0.6-0.3
				c0,0,0,0,0,0c0,0,0,0,0,0c0,0,0,0,0,0c0,0,0,0,0,0c0,0,0,0,0,0s0,0,0,0c0,0,0,0,0,0c0,0,0,0,0,0c0,0,0,0,0,0c0,0,0,0,0,0
				c0,0,0,0,0,0c0,0,0,0,0,0c0,0,0,0,0.1,0h0c0,0,0,0,0,0c0,0,0,0,0,0c0,0,0,0,0,0l0,0c0,0,0,0,0,0l0,0c0.4-0.3,0.9-0.5,1.3-0.8
				L191.1,195.4L191.1,195.4z M195,192.6c-0.6,0.5-1.3,1-1.9,1.4l0.2,0.3c0.7-0.5,1.3-1,1.9-1.5L195,192.6L195,192.6z M198.7,189.5
				c-0.6,0.5-1.2,1.1-1.8,1.6l0.2,0.3c0.6-0.5,1.2-1.1,1.8-1.6L198.7,189.5L198.7,189.5z M202.1,186.1c-0.5,0.6-1.1,1.2-1.7,1.8
				l0.2,0.2c0.5-0.5,1-1.1,1.5-1.6l0,0c0,0,0,0,0,0l0,0c0,0,0.1-0.1,0.1-0.1l0,0c0,0,0,0,0,0c0,0,0,0,0,0c0,0,0,0,0,0c0,0,0,0,0,0
				c0,0,0,0,0,0c0,0,0,0,0,0L202.1,186.1L202.1,186.1z M205.1,182.3c-0.5,0.6-1,1.3-1.5,1.9l0.3,0.2c0.1-0.1,0.2-0.3,0.3-0.4h0
				c0,0,0,0,0,0c0,0,0,0,0,0c0,0,0,0,0,0c0,0,0,0,0,0c0,0,0,0,0,0c0,0,0,0,0,0c0,0,0,0,0,0c0,0,0,0,0,0c0,0,0,0,0,0c0,0,0,0,0,0
				c0,0,0,0,0,0c0.4-0.5,0.7-0.9,1.1-1.4L205.1,182.3L205.1,182.3z M207.9,178.3c-0.4,0.7-0.9,1.4-1.3,2l0.3,0.2
				c0.5-0.7,0.9-1.3,1.3-2L207.9,178.3L207.9,178.3z M210.2,174.1c-0.4,0.7-0.7,1.4-1.1,2.1l0.3,0.2c0.1-0.2,0.2-0.3,0.3-0.5
				c0,0,0,0,0,0c0,0,0,0,0,0c0,0,0,0,0,0c0,0,0,0,0,0c0,0,0,0,0,0c0,0,0,0,0,0c0,0,0,0,0,0c0,0,0,0,0,0c0,0,0,0,0,0c0,0,0,0,0,0
				c0,0,0,0,0,0c0,0,0,0,0,0c0.3-0.5,0.6-1.1,0.8-1.6L210.2,174.1L210.2,174.1z M212.2,169.7c-0.3,0.7-0.6,1.5-0.9,2.2l0.3,0.1
				c0.3-0.6,0.5-1.1,0.7-1.7v0c0,0,0-0.1,0-0.1l0,0c0,0,0,0,0,0c0,0,0,0,0,0c0,0,0,0,0,0c0,0,0,0,0,0c0,0,0,0,0,0s0,0,0,0
				c0,0,0,0,0,0c0,0,0,0,0,0s0,0,0,0c0,0,0,0,0,0c0,0,0,0,0,0c0,0,0,0,0,0c0,0,0,0,0,0c0,0,0,0,0,0c0,0,0,0,0,0c0,0,0,0,0,0
				c0,0,0,0,0,0c0,0,0,0,0,0c0,0,0,0,0,0c0,0,0,0,0,0c0,0,0,0,0,0c0,0,0,0,0,0c0,0,0,0,0,0c0-0.1,0-0.1,0.1-0.2L212.2,169.7
				L212.2,169.7z M213.8,165.2c-0.2,0.8-0.5,1.5-0.8,2.3l0.3,0.1c0.1-0.2,0.1-0.4,0.2-0.5c0,0,0,0,0,0c0,0,0,0,0,0v0c0,0,0,0,0,0
				c0,0,0,0,0,0c0,0,0,0,0,0c0,0,0,0,0,0c0,0,0,0,0-0.1v0c0,0,0,0,0,0c0,0,0,0,0,0c0,0,0,0,0,0c0,0,0,0,0,0c0,0,0,0,0,0c0,0,0,0,0,0
				c0,0,0,0,0,0c0,0,0,0,0,0c0,0,0,0,0,0c0,0,0,0,0,0c0,0,0,0,0,0c0,0,0,0,0,0c0,0,0,0,0,0c0,0,0,0,0,0c0,0,0,0,0,0c0,0,0,0,0,0
				c0,0,0,0,0,0c0,0,0,0,0,0c0,0,0,0,0,0c0,0,0,0,0,0c0,0,0,0,0,0c0,0,0,0,0,0c0,0,0,0,0,0c0,0,0,0,0,0c0,0,0,0,0,0c0,0,0,0,0,0
				c0,0,0,0,0,0c0,0,0,0,0,0c0,0,0,0,0,0c0,0,0,0,0-0.1c0,0,0,0,0,0c0,0,0,0,0,0c0,0,0,0,0,0c0,0,0,0,0,0c0,0,0,0,0,0c0,0,0,0,0,0v0
				c0,0,0,0,0,0v0c0.1-0.4,0.3-0.8,0.4-1.2L213.8,165.2L213.8,165.2z M215,160.5c-0.2,0.8-0.3,1.6-0.5,2.4l0.3,0.1
				c0.2-0.8,0.4-1.6,0.5-2.4L215,160.5L215,160.5z M215.8,155.8c-0.1,0.8-0.2,1.6-0.3,2.4l0.3,0.1c0-0.1,0-0.2,0-0.3l0,0
				c0,0,0,0,0-0.1c0,0,0,0,0,0c0,0,0,0,0,0c0,0,0,0,0,0c0,0,0,0,0,0c0,0,0,0,0,0c0,0,0,0,0,0c0,0,0,0,0,0c0,0,0,0,0,0s0,0,0,0
				c0,0,0,0,0,0c0.1-0.7,0.2-1.3,0.3-2L215.8,155.8L215.8,155.8z M216.2,150.9c0,0.8-0.1,1.6-0.1,2.4l0.3,0c0,0,0-0.1,0-0.1
				c0,0,0,0,0,0c0,0,0,0,0,0c0,0,0,0,0,0c0,0,0,0,0,0c0,0,0,0,0,0c0,0,0,0,0,0c0,0,0,0,0,0c0,0,0,0,0,0c0,0,0,0,0,0c0,0,0,0,0,0
				c0,0,0,0,0,0s0,0,0,0c0,0,0,0,0,0c0,0,0,0,0,0c0,0,0,0,0,0c0,0,0,0,0,0c0,0,0,0,0,0c0,0,0,0,0,0c0,0,0,0,0,0l0,0c0,0,0,0,0,0
				c0,0,0,0,0,0c0,0,0,0,0,0c0,0,0,0,0,0c0,0,0,0,0,0c0,0,0,0,0,0c0,0,0,0,0,0v0c0,0,0,0,0-0.1c0,0,0,0,0,0c0,0,0,0,0,0v0
				c0,0,0,0,0,0c0,0,0,0,0,0c0,0,0-0.1,0-0.1v0c0,0,0,0,0,0c0,0,0,0,0,0c0,0,0-0.1,0-0.1l0,0c0,0,0,0,0,0v0c0,0,0,0,0,0c0,0,0,0,0,0
				c0,0,0-0.1,0-0.1c0,0,0,0,0,0c0,0,0,0,0,0v0c0,0,0,0,0,0c0,0,0,0,0,0c0,0,0,0,0-0.1v0c0,0,0,0,0,0c0,0,0,0,0,0c0,0,0,0,0,0
				c0,0,0,0,0,0c0,0,0,0,0,0c0,0,0,0,0,0c0,0,0,0,0,0v0c0,0,0,0,0-0.1c0,0,0,0,0,0c0,0,0,0,0,0c0,0,0,0,0,0s0,0,0,0c0,0,0,0,0,0
				c0,0,0,0,0,0c0,0,0,0,0,0c0,0,0,0,0,0c0,0,0,0,0,0c0,0,0,0,0,0c0,0,0,0,0,0c0,0,0,0,0,0c0,0,0,0,0,0c0,0,0,0,0,0s0,0,0,0
				c0,0,0,0,0,0c0,0,0,0,0,0s0,0,0,0c0,0,0,0,0,0c0,0,0,0,0,0c0,0,0,0,0,0c0,0,0,0,0,0c0,0,0,0,0,0c0,0,0,0,0,0c0,0,0,0,0,0
				c0,0,0,0,0,0c0,0,0,0,0,0l0,0c0-0.3,0-0.6,0-0.9L216.2,150.9L216.2,150.9z M216.4,146.1l-0.3,0c0,0.8,0.1,1.6,0.1,2.4l0.3,0
				c0-0.3,0-0.5,0-0.8v0c0,0,0,0,0,0c0,0,0,0,0,0c0,0,0,0,0,0c0,0,0,0,0,0c0,0,0,0,0,0c0,0,0,0,0,0c0,0,0,0,0,0c0,0,0,0,0,0
				c0,0,0,0,0,0c0,0,0,0,0,0c0,0,0,0,0,0c0,0,0,0,0,0c0,0,0,0,0,0c0,0,0,0,0,0c0,0,0,0,0,0c0,0,0,0,0,0c0,0,0,0,0,0c0,0,0,0,0,0
				c0,0,0,0,0,0c0,0,0,0,0,0c0,0,0,0,0,0c0,0,0,0,0,0c0,0,0,0,0,0c0,0,0,0,0,0c0,0,0,0,0,0c0,0,0,0,0,0c0,0,0,0,0,0c0,0,0,0,0,0
				c0,0,0,0,0,0c0,0,0,0,0,0c0,0,0,0,0,0c0,0,0,0,0,0c0,0,0,0,0,0c0,0,0,0,0,0c0,0,0,0,0,0c0,0,0,0,0,0c0,0,0,0,0,0c0,0,0,0,0,0
				c0,0,0,0,0,0c0,0,0,0,0,0c0,0,0,0,0,0c0,0,0,0,0,0c0,0,0,0,0,0c0,0,0,0,0,0c0,0,0,0,0,0c0,0,0,0,0,0c0,0,0,0,0,0c0,0,0,0,0,0
				c0,0,0,0,0,0c0,0,0,0,0,0c0,0,0,0,0,0c0,0,0,0,0,0c0,0,0,0,0,0c0,0,0,0,0,0c0,0,0,0,0,0c0,0,0,0,0,0c0,0,0,0,0,0c0,0,0,0,0,0
				c0,0,0,0,0,0v0c0,0,0,0,0,0c0,0,0,0,0,0c0,0,0,0,0,0c0,0,0,0,0,0c0,0,0,0,0,0s0,0,0,0c0,0,0,0,0,0c0,0,0,0,0,0c0,0,0,0,0,0v0
				c0,0,0,0,0,0c0,0,0,0,0,0c0,0,0,0,0,0c0,0,0,0,0,0c0,0,0,0,0,0c0,0,0,0,0,0c0,0,0,0,0,0c0,0,0,0,0,0c0,0,0,0,0,0c0,0,0,0,0,0
				c0,0,0,0,0,0c0,0,0,0,0,0c0,0,0,0,0,0c0,0,0,0,0,0c0,0,0,0,0,0c0,0,0,0,0,0c0,0,0,0,0,0c0,0,0,0,0,0c0,0,0,0,0,0v0c0,0,0,0,0,0v0
				c0,0,0,0,0,0c0,0,0,0,0,0c0,0,0,0,0,0c0,0,0,0,0,0c0,0,0,0,0,0c0,0,0,0,0,0c0,0,0,0,0-0.1c0,0,0,0,0,0c0,0,0,0,0,0c0,0,0,0,0,0
				c0,0,0,0,0,0c0,0,0,0,0,0c0,0,0,0,0,0c0,0,0,0,0,0c0,0,0,0,0,0l0,0c0,0,0,0,0,0c0,0,0,0,0,0c0,0,0,0,0,0c0,0,0,0,0,0c0,0,0,0,0,0
				c0,0,0,0,0,0c0,0,0,0,0,0c0,0,0,0,0,0c0,0,0,0,0,0v0c0,0,0,0,0,0c0,0,0,0,0,0C216.4,146.2,216.4,146.2,216.4,146.1
				C216.4,146.2,216.4,146.2,216.4,146.1C216.4,146.2,216.4,146.2,216.4,146.1C216.4,146.2,216.4,146.2,216.4,146.1
				C216.4,146.2,216.4,146.2,216.4,146.1C216.4,146.2,216.4,146.1,216.4,146.1C216.4,146.1,216.4,146.1,216.4,146.1L216.4,146.1
				C216.4,146.1,216.4,146.1,216.4,146.1C216.4,146.1,216.4,146.1,216.4,146.1C216.4,146.1,216.4,146.1,216.4,146.1L216.4,146.1z
				 M216,141.3l-0.3,0c0.1,0.8,0.2,1.6,0.3,2.4l0.3,0c0-0.3-0.1-0.7-0.1-1l0,0c0,0,0,0,0,0c0,0,0,0,0,0c0,0,0,0,0,0c0,0,0,0,0,0
				c0,0,0,0,0-0.1c0,0,0,0,0,0c0,0,0,0,0,0c0,0,0,0,0,0c0,0,0,0,0,0c0,0,0,0,0,0c0,0,0,0,0,0c0,0,0,0,0,0c0,0,0,0,0,0c0,0,0,0,0,0
				c0,0,0,0,0,0c0,0,0,0,0,0c0,0,0,0,0,0c0,0,0,0,0,0c0,0,0,0,0,0c0,0,0,0,0,0c0,0,0,0,0,0c0,0,0,0,0,0c0,0,0,0,0,0s0,0,0,0
				c0,0,0,0,0,0c0,0,0,0,0,0c0,0,0,0,0,0c0,0,0-0.1,0-0.1l0,0c0,0,0,0,0,0l0,0C216.1,141.9,216,141.6,216,141.3L216,141.3z
				 M215.1,136.5l-0.3,0.1c0.2,0.8,0.3,1.6,0.5,2.4l0.3-0.1c0-0.1-0.1-0.3-0.1-0.4l0,0c0,0,0,0,0,0l0,0c0,0,0,0,0,0c0,0,0,0,0,0
				c0,0,0-0.1,0-0.1c0,0,0,0,0,0c0,0,0,0,0,0c0,0,0,0,0,0c0,0,0,0,0,0c0,0,0,0,0,0c0,0,0,0,0,0c0,0,0,0,0,0c0,0,0,0,0,0c0,0,0,0,0,0
				c0,0,0,0,0,0c0,0,0,0,0,0c0,0,0,0,0,0c0,0,0,0,0,0c0,0,0,0,0,0c0,0,0,0,0,0c0,0,0,0,0,0c0,0,0,0,0,0c0,0,0,0,0,0c0,0,0,0,0,0
				c0,0,0,0,0,0c0,0,0,0,0,0c0,0,0,0,0,0c0,0,0,0,0,0c0,0,0,0,0,0c0,0,0-0.1,0-0.1l0,0c0,0,0,0,0,0l0,0c-0.1-0.4-0.2-0.8-0.3-1.2
				l0,0c0,0,0,0,0,0c0,0,0,0,0,0c0,0,0,0,0,0c0,0,0,0,0,0c0,0,0,0,0,0c0,0,0,0,0,0c0,0,0,0,0,0c0,0,0,0,0,0c0,0,0,0,0,0
				C215.1,136.6,215.1,136.6,215.1,136.5L215.1,136.5z M213.8,131.8l-0.3,0.1c0.2,0.8,0.5,1.5,0.7,2.3l0.3-0.1l0,0l0,0c0,0,0,0,0,0
				c0,0,0,0,0,0c0,0,0,0,0,0c0,0,0,0,0,0c0,0,0,0,0,0c0,0,0,0,0,0c0,0,0,0,0,0c0,0,0,0,0,0c0,0,0,0,0,0c0,0,0,0,0,0
				C214.2,133.3,214,132.6,213.8,131.8L213.8,131.8z M212,127.3l-0.3,0.1c0.3,0.7,0.6,1.5,0.9,2.2l0.3-0.1
				C212.7,128.8,212.4,128,212,127.3L212,127.3z M209.9,122.9l-0.3,0.2c0.4,0.7,0.7,1.4,1.1,2.1l0.3-0.2c-0.3-0.6-0.5-1.1-0.8-1.7v0
				c0,0,0,0,0,0l0,0c0,0,0,0,0,0c0,0,0,0,0,0c0,0,0,0,0,0v0c0,0,0-0.1,0-0.1c0,0,0,0,0,0c0,0,0,0,0,0c0,0,0,0,0,0c0,0,0,0,0,0
				c0,0,0,0,0,0c0,0,0,0,0,0c0,0,0,0,0,0c0,0,0,0,0,0c0,0,0,0,0,0c0,0,0,0,0,0c0,0,0,0,0,0c0,0,0,0,0,0c0,0,0,0,0,0l0,0
				c0,0,0,0,0-0.1l0,0c0,0,0,0,0,0c0,0,0,0,0,0C210,123,209.9,123,209.9,122.9L209.9,122.9z M207.4,118.7l-0.3,0.2
				c0.4,0.7,0.9,1.4,1.3,2l0.3-0.2c-0.2-0.4-0.5-0.8-0.8-1.2h0c0,0,0,0,0,0c0,0,0,0,0,0c0,0,0,0,0,0l0,0c0,0,0,0,0,0l0,0
				c0,0,0,0,0,0c0,0,0,0,0,0c0,0,0,0,0,0c0,0,0,0,0,0c0,0,0,0,0,0c0,0,0,0,0,0c0,0,0,0,0,0c0,0,0,0,0,0c0,0,0,0,0,0c0,0,0,0,0,0
				c0,0,0,0,0,0c0,0,0,0,0,0v0c0,0,0,0,0,0l0,0C207.7,119.2,207.6,118.9,207.4,118.7L207.4,118.7z M204.6,114.8l-0.3,0.2
				c0.5,0.6,1,1.3,1.5,1.9l0.3-0.2c-0.1-0.1-0.2-0.3-0.3-0.4l0,0c0,0,0,0,0,0c0,0,0,0,0,0c0,0,0,0,0,0c0,0,0,0,0,0c0,0,0,0,0,0
				c0,0,0,0,0,0c0,0,0,0,0,0c0,0,0,0,0,0c0,0,0,0,0,0c0,0,0,0,0,0c0,0,0,0,0,0c0,0,0,0,0,0c0,0,0,0,0,0c0,0,0,0,0,0c0,0,0,0,0,0
				c0,0,0,0,0,0c0,0,0,0,0,0c0,0,0,0,0,0c0,0,0,0,0,0c0,0,0,0,0,0c0,0,0,0,0,0c0,0,0,0,0,0c0,0,0,0,0,0c0,0,0,0,0,0c0,0,0,0,0,0
				c0,0,0,0,0,0c0,0,0,0,0,0c0,0,0,0,0,0c0,0,0,0,0,0c0,0,0,0,0,0c0,0,0,0,0,0c0,0,0,0,0,0s0,0,0,0c0,0,0,0,0,0c0,0,0,0,0,0
				c0,0,0,0,0,0c0,0,0,0,0,0c0,0,0,0,0,0c0,0,0,0,0,0c0,0,0,0,0,0c0,0,0,0,0,0c0,0,0,0,0,0c0,0,0,0,0,0c0,0,0,0,0,0c0,0,0,0,0,0
				c0,0,0,0,0,0c0,0,0,0,0,0c0,0,0,0,0,0c0,0,0,0,0,0c0,0,0,0,0,0c0,0,0,0,0,0c0,0,0,0,0,0c0,0,0,0,0,0l0,0c0,0,0,0,0,0l0,0
				c0,0,0,0,0,0c0,0,0,0,0,0c0,0,0,0,0,0c0,0,0,0,0,0s0,0,0,0c0,0,0,0,0,0c0,0,0,0,0,0c0,0,0,0,0,0c0,0,0,0,0,0c0,0,0,0,0,0
				c0,0,0,0,0,0c0,0,0,0,0,0C205.1,115.4,204.8,115.1,204.6,114.8L204.6,114.8z M201.4,111.1l-0.3,0.2c0.6,0.6,1.1,1.2,1.6,1.8
				l0.3-0.2C202.5,112.3,202,111.7,201.4,111.1L201.4,111.1z M197.9,107.7l-0.2,0.3c0.6,0.5,1.2,1.1,1.8,1.6l0.2-0.2
				c-0.3-0.3-0.6-0.6-0.9-0.8c0,0,0,0,0,0c0,0,0,0,0,0c0,0,0,0,0,0c0,0,0,0,0,0c0,0,0,0,0,0c0,0,0,0,0,0c0,0,0,0,0,0c0,0,0,0,0,0
				c0,0,0,0,0,0c0,0,0,0,0,0c0,0,0,0,0,0c0,0,0,0,0,0c0,0,0,0,0,0c0,0,0,0,0,0c0,0,0,0,0,0c0,0,0,0,0,0c0,0,0,0-0.1-0.1l0,0
				C198.4,108.2,198.2,108,197.9,107.7L197.9,107.7z M194.1,104.7l-0.2,0.3c0.6,0.5,1.3,1,1.9,1.5l0.2-0.3
				C195.4,105.6,194.8,105.2,194.1,104.7L194.1,104.7z M190.1,101.9l-0.2,0.3c0.7,0.4,1.4,0.9,2,1.3l0.2-0.3c0,0,0,0,0,0h0
				c0,0,0,0,0,0c0,0,0,0,0,0c0,0,0,0,0,0c0,0,0,0,0,0c0,0,0,0,0,0c0,0,0,0,0,0c0,0,0,0,0,0l0,0c0,0,0,0,0,0c0,0,0,0,0,0c0,0,0,0,0,0
				c0,0,0,0,0,0c0,0,0,0,0,0c0,0,0,0,0,0c0,0,0,0,0,0c0,0,0,0,0,0c0,0,0,0,0,0c0,0,0,0,0,0c0,0,0,0,0,0c0,0,0,0,0,0h0
				C191.3,102.7,190.7,102.3,190.1,101.9L190.1,101.9z M185.9,99.6l-0.2,0.3c0.7,0.4,1.4,0.7,2.1,1.1l0.2-0.3
				c-0.2-0.1-0.4-0.2-0.6-0.3c0,0,0,0,0,0c0,0,0,0,0,0c0,0,0,0,0,0c0,0,0,0,0,0c0,0,0,0,0,0c0,0,0,0,0,0c0,0,0,0,0,0c0,0,0,0,0,0
				c0,0,0,0,0,0c0,0,0,0,0,0c0,0,0,0,0,0h0c-0.4-0.2-0.9-0.5-1.3-0.7h0c0,0,0,0,0,0c0,0,0,0,0,0c0,0,0,0,0,0c0,0,0,0,0,0
				C186,99.6,186,99.6,185.9,99.6C186,99.6,186,99.6,185.9,99.6C186,99.6,186,99.6,185.9,99.6C186,99.6,186,99.6,185.9,99.6
				C186,99.6,185.9,99.6,185.9,99.6C185.9,99.6,185.9,99.6,185.9,99.6L185.9,99.6z M181.4,97.6l-0.1,0.3c0.7,0.3,1.5,0.6,2.2,0.9
				l0.1-0.3c-0.2-0.1-0.5-0.2-0.8-0.3c0,0,0,0,0,0c0,0,0,0,0,0h0c0,0,0,0,0,0c0,0,0,0,0,0c0,0,0,0,0,0h0c0,0-0.1,0-0.1,0
				c0,0,0,0,0,0c0,0,0,0,0,0c0,0,0,0,0,0c0,0,0,0,0,0c0,0,0,0,0,0c0,0,0,0,0,0c0,0,0,0,0,0c0,0,0,0,0,0c0,0,0,0,0,0c0,0,0,0,0,0
				c0,0,0,0,0,0c0,0,0,0,0,0c0,0,0,0,0,0c0,0,0,0,0,0c0,0,0,0,0,0c0,0,0,0,0,0c0,0,0,0,0,0c0,0,0,0,0,0c0,0,0,0,0,0c0,0,0,0,0,0
				c0,0,0,0,0,0c0,0,0,0,0,0c0,0,0,0,0,0c0,0,0,0,0,0s0,0,0,0c0,0,0,0,0,0c0,0,0,0,0,0c0,0,0,0,0,0c0,0,0,0,0,0c0,0,0,0,0,0
				c0,0,0,0-0.1,0h0c0,0,0,0,0,0c0,0,0,0,0,0c0,0,0,0,0,0c0,0,0,0,0,0c0,0,0,0,0,0l0,0c0,0,0,0,0,0c0,0,0,0,0,0c0,0,0,0,0,0
				c0,0,0,0,0,0c0,0-0.1,0-0.1,0h0c0,0,0,0,0,0l0,0c0,0,0,0,0,0h0c-0.1,0-0.1,0-0.2-0.1l0,0c-0.1,0-0.1,0-0.2-0.1l0,0
				c0,0-0.1,0-0.1-0.1c0,0,0,0,0,0c0,0,0,0,0,0l0,0c0,0,0,0,0,0l0,0c0,0-0.1,0-0.1,0h0C181.6,97.6,181.5,97.6,181.4,97.6
				C181.5,97.6,181.5,97.6,181.4,97.6C181.5,97.6,181.5,97.6,181.4,97.6L181.4,97.6C181.5,97.6,181.5,97.6,181.4,97.6
				C181.5,97.6,181.5,97.6,181.4,97.6C181.5,97.6,181.5,97.6,181.4,97.6L181.4,97.6C181.5,97.6,181.5,97.6,181.4,97.6L181.4,97.6z
				 M176.9,96l-0.1,0.3c0.8,0.2,1.5,0.5,2.3,0.7l0.1-0.3c-0.3-0.1-0.6-0.2-1-0.3l0,0c0,0,0,0,0,0h0c0,0,0,0,0,0c0,0,0,0,0,0
				c0,0-0.1,0-0.1,0v0c0,0,0,0,0,0c0,0,0,0,0,0c0,0,0,0,0,0c0,0,0,0,0,0c0,0,0,0,0,0c0,0,0,0,0,0c0,0,0,0,0,0s0,0,0,0c0,0,0,0,0,0
				c0,0,0,0,0,0c0,0,0,0,0,0c0,0,0,0,0,0c0,0,0,0,0,0c0,0,0,0,0,0c0,0,0,0,0,0c0,0,0,0,0,0c0,0,0,0,0,0c0,0,0,0,0,0c0,0,0,0,0,0
				s0,0,0,0c0,0,0,0,0,0c0,0,0,0,0,0c0,0,0,0,0,0c0,0,0,0,0,0c0,0,0,0,0,0c0,0,0,0,0,0c0,0,0,0,0,0c0,0,0,0,0,0c0,0,0,0,0,0
				c0,0,0,0,0,0c0,0,0,0,0,0c0,0,0,0,0,0c0,0,0,0,0,0c0,0,0,0,0,0c0,0,0,0,0,0c0,0,0,0,0,0c0,0,0,0,0,0c0,0,0,0,0,0c0,0,0,0,0,0
				c0,0,0,0,0,0c0,0,0,0,0,0c0,0,0,0,0,0c0,0,0,0,0,0c0,0-0.1,0-0.1,0c0,0,0,0,0,0c0,0,0,0,0,0c0,0,0,0,0,0c0,0,0,0,0,0c0,0,0,0,0,0
				c0,0,0,0,0,0c0,0,0,0,0,0c0,0,0,0,0,0c0,0,0,0,0,0c0,0-0.1,0-0.1,0l0,0c0,0,0,0,0,0c0,0,0,0,0,0c0,0,0,0,0,0c0,0,0,0,0,0
				c0,0,0,0,0,0l0,0C177.2,96.1,177,96,176.9,96L176.9,96z M172.1,94.8l-0.1,0.3c0.8,0.2,1.6,0.3,2.4,0.5l0.1-0.3
				c-0.1,0-0.1,0-0.2,0c0,0,0,0,0,0c0,0,0,0,0,0c0,0,0,0,0,0c0,0,0,0,0,0c0,0,0,0,0,0c0,0,0,0,0,0c0,0,0,0,0,0c0,0,0,0,0,0
				c0,0,0,0,0,0c0,0,0,0-0.1,0h0c0,0,0,0,0,0c0,0,0,0,0,0c0,0,0,0,0,0c0,0,0,0,0,0c0,0,0,0,0,0c0,0,0,0,0,0c0,0,0,0,0,0c0,0,0,0,0,0
				c0,0,0,0,0,0c0,0,0,0,0,0c0,0,0,0-0.1,0c0,0,0,0,0,0c0,0,0,0,0,0c0,0,0,0,0,0c0,0,0,0,0,0c0,0,0,0,0,0c0,0,0,0,0,0h0
				c0,0-0.1,0-0.1,0c0,0,0,0,0,0c0,0,0,0,0,0c0,0,0,0,0,0c0,0,0,0,0,0h0c0,0,0,0,0,0h0c0,0-0.1,0-0.1,0l0,0c0,0,0,0,0,0l0,0
				c0,0,0,0,0,0h0c-0.5-0.1-0.9-0.2-1.4-0.3l0,0c0,0,0,0,0,0c0,0,0,0,0,0c0,0,0,0,0,0c0,0,0,0,0,0C172.2,94.8,172.2,94.8,172.1,94.8
				C172.2,94.8,172.2,94.8,172.1,94.8C172.2,94.8,172.2,94.8,172.1,94.8C172.2,94.8,172.2,94.8,172.1,94.8
				C172.2,94.8,172.2,94.8,172.1,94.8C172.2,94.8,172.2,94.8,172.1,94.8C172.2,94.8,172.1,94.8,172.1,94.8
				C172.1,94.8,172.1,94.8,172.1,94.8C172.1,94.8,172.1,94.8,172.1,94.8L172.1,94.8z M167.3,94l0,0.3c0.8,0.1,1.6,0.2,2.4,0.3
				l0.1-0.3c-0.1,0-0.2,0-0.3,0c0,0,0,0,0,0c0,0,0,0,0,0c0,0,0,0,0,0c0,0,0,0,0,0c0,0,0,0,0,0c0,0,0,0,0,0h0c0,0,0,0,0,0
				c0,0,0,0,0,0c0,0,0,0,0,0c0,0,0,0,0,0c0,0,0,0,0,0c0,0,0,0,0,0c0,0,0,0,0,0c0,0,0,0,0,0c0,0,0,0,0,0c0,0,0,0,0,0c0,0,0,0,0,0
				c0,0,0,0,0,0c0,0,0,0,0,0c0,0,0,0,0,0c0,0,0,0,0,0c0,0,0,0,0,0c0,0,0,0,0,0c0,0,0,0,0,0c0,0,0,0,0,0c0,0,0,0,0,0c0,0,0,0,0,0
				c0,0,0,0,0,0h0c0,0-0.1,0-0.1,0h0c0,0,0,0,0,0l0,0c0,0,0,0,0,0l0,0c-0.3,0-0.6-0.1-0.8-0.1h0C167.9,94.1,167.6,94.1,167.3,94
				L167.3,94z M162.5,93.7l0,0.3c0.8,0,1.6,0.1,2.4,0.1l0-0.3c-0.1,0-0.2,0-0.3,0c0,0,0,0,0,0c0,0,0,0,0,0c0,0,0,0,0,0c0,0,0,0,0,0
				c0,0,0,0,0,0c0,0,0,0,0,0c0,0,0,0,0,0s0,0,0,0c0,0,0,0,0,0h0c0,0,0,0,0,0c0,0,0,0,0,0c0,0,0,0,0,0l0,0
				C163.8,93.7,163.1,93.7,162.5,93.7L162.5,93.7z"/>
		</g>
	</g>
	<g>
		<polygon class="st1" points="100.2,149.2 91.5,140.5 91.5,146.4 88.3,146.4 88.3,152 91.5,152 91.5,158 		"/>
	</g>
	<g>
		<path class="st4" d="M82.6,168c0.8,3.3,1.8,6.6,3,9.8c7.4,19.3,22,35.7,42.3,44.8c20.3,9.1,42.3,9.1,61.7,1.8
			c19.3-7.3,35.7-22,44.9-42.3c9.1-20.3,9.1-42.3,1.8-61.6c-7.4-19.3-22-35.7-42.3-44.8c-20.3-9.1-42.3-9.1-61.7-1.8
			c-19.3,7.4-35.7,22-44.9,42.3c-1.9,4.3-3.4,8.7-4.6,13.1c2.7,5.8,4.1,12.3,4.1,19.1C87,155.4,85.4,162.1,82.6,168z"/>
	</g>
	<g>
		<path class="st2" d="M81.7,148.4c0-11.3-4.6-21.5-12-28.8c-7.4-7.4-17.6-11.9-28.9-11.9c-11.3,0-21.5,4.6-28.9,11.9
			c-7.4,7.4-12,17.6-12,28.8c0,11.3,4.6,21.5,12,28.8c7.4,7.4,17.6,11.9,28.9,11.9c11.3,0,21.5-4.6,28.9-11.9
			C77.1,169.9,81.7,159.7,81.7,148.4z"/>
	</g>
	<g>
		<polygon class="st1" points="161,211.9 152.2,220.6 158.2,220.6 158.2,223.8 163.7,223.8 163.7,220.6 169.7,220.6 		"/>
	</g>
	<g>
		<polygon class="st1" points="222.3,148.4 231,157.2 231,151.2 234.1,151.2 234.1,145.6 231,145.6 231,139.6 		"/>
	</g>
	<g>
		<polygon class="st1" points="159,88.3 167.7,79.5 161.8,79.5 161.8,76.4 156.2,76.4 156.2,79.5 150.2,79.5 		"/>
	</g>
	<g>
		<path class="st2" d="M121.9,55.3C98.8,64.8,79.1,82.9,68,107.5c-0.4,0.9-0.8,1.9-1.2,2.8c6.9,4.7,12.5,11.3,16,19
			c1.1-4.4,2.6-8.8,4.6-13.1C96.6,95.9,113,81.3,132.3,74c2.9-1.1,5.9-2,8.9-2.8C133.4,67.7,126.7,62.2,121.9,55.3z"/>
	</g>
	<g>
		<g>
			<g>
				<path class="st1" d="M48,157.6c-3.6,2.7-8.9,4.1-13.4,4.1c-6.3,0-12-2.3-16.4-6.2c-0.3-0.3,0-0.7,0.4-0.5
					c4.7,2.7,10.4,4.3,16.4,4.3c4,0,8.4-0.8,12.5-2.6C48,156.5,48.6,157.2,48,157.6z"/>
			</g>
			<g>
				<path class="st1" d="M49.5,155.9c-0.5-0.6-3.1-0.3-4.2-0.1c-0.4,0-0.4-0.3-0.1-0.5c2.1-1.5,5.5-1,5.9-0.5c0.4,0.5-0.1,3.9-2,5.5
					c-0.3,0.2-0.6,0.1-0.5-0.2C48.9,159,49.9,156.5,49.5,155.9z"/>
			</g>
		</g>
		<g>
			<path class="st1" d="M45.3,145v-1.4c0-0.2,0.2-0.4,0.4-0.4l6.3,0c0.2,0,0.4,0.1,0.4,0.4l0,1.2c0,0.2-0.2,0.5-0.5,0.9l-3.3,4.7
				c1.2,0,2.5,0.2,3.6,0.8c0.2,0.1,0.3,0.3,0.3,0.6v1.5c0,0.2-0.2,0.5-0.5,0.3c-2-1-4.5-1.1-6.7,0c-0.2,0.1-0.5-0.1-0.5-0.3v-1.4
				c0-0.2,0-0.6,0.2-1l3.8-5.5h-3.3C45.5,145.4,45.3,145.2,45.3,145z"/>
		</g>
		<g>
			<path class="st1" d="M22.2,153.9h-1.9c-0.2,0-0.3-0.2-0.3-0.3l0-9.9c0-0.2,0.2-0.4,0.4-0.4h1.8c0.2,0,0.3,0.2,0.4,0.3v1.3h0
				c0.5-1.2,1.4-1.8,2.5-1.8c1.2,0,2,0.6,2.5,1.8c0.5-1.2,1.5-1.8,2.7-1.8c0.8,0,1.7,0.3,2.2,1.1c0.6,0.8,0.5,2,0.5,3.1v6.2
				c0,0.2-0.2,0.4-0.4,0.4h-1.9c-0.2,0-0.3-0.2-0.3-0.4v-5.2c0-0.4,0-1.5-0.1-1.9c-0.1-0.7-0.6-0.9-1.1-0.9c-0.5,0-1,0.3-1.2,0.8
				c-0.2,0.5-0.2,1.3-0.2,1.9v5.2c0,0.2-0.2,0.4-0.4,0.4h-1.9c-0.2,0-0.3-0.2-0.3-0.4l0-5.2c0-1.1,0.2-2.7-1.2-2.7
				c-1.4,0-1.3,1.6-1.3,2.7l0,5.2C22.6,153.7,22.4,153.9,22.2,153.9z"/>
		</g>
		<g>
			<path class="st1" d="M57.8,143.1c2.9,0,4.4,2.5,4.4,5.6c0,3-1.7,5.4-4.4,5.4c-2.8,0-4.3-2.5-4.3-5.5
				C53.5,145.5,55,143.1,57.8,143.1z M57.9,145.1c-1.4,0-1.5,1.9-1.5,3.1s0,3.8,1.5,3.8c1.5,0,1.6-2.1,1.6-3.3c0-0.8,0-1.8-0.3-2.6
				C58.9,145.4,58.5,145.1,57.9,145.1z"/>
		</g>
		<g>
			<path class="st1" d="M66,153.9H64c-0.2,0-0.3-0.2-0.3-0.4l0-9.9c0-0.2,0.2-0.3,0.4-0.3h1.8c0.2,0,0.3,0.1,0.3,0.3v1.5h0
				c0.5-1.4,1.3-2,2.6-2c0.9,0,1.7,0.3,2.2,1.2c0.5,0.8,0.5,2.1,0.5,3.1v6.2c0,0.2-0.2,0.3-0.4,0.3h-1.9c-0.2,0-0.3-0.1-0.3-0.3
				v-5.4c0-1.1,0.1-2.7-1.2-2.7c-0.5,0-0.9,0.3-1.1,0.8c-0.3,0.6-0.3,1.2-0.3,1.9v5.3C66.3,153.7,66.2,153.9,66,153.9z"/>
		</g>
		<g>
			<g>
				<path class="st1" d="M18.4,152c-0.4-0.5-0.7-0.9-0.7-1.8v-3c0-1.3,0.1-2.4-0.8-3.3c-0.7-0.7-2-1-2.9-1c-1.8,0-3.9,0.7-4.3,2.9
					c0,0.2,0.1,0.4,0.3,0.4l1.9,0.2c0.2,0,0.3-0.2,0.3-0.4c0.2-0.8,0.8-1.2,1.5-1.2c0.4,0,0.8,0.1,1.1,0.5c0.3,0.4,0.2,0.9,0.2,1.4
					v0.2c-1.1,0.1-2.6,0.2-3.6,0.7c-1.2,0.5-2.1,1.6-2.1,3.1c0,2,1.3,3,2.9,3c1.4,0,2.1-0.3,3.2-1.4c0.4,0.5,0.5,0.8,1.1,1.3
					c0.1,0.1,0.3,0.1,0.5,0l0,0c0.4-0.3,1.1-0.9,1.5-1.3C18.6,152.4,18.5,152.2,18.4,152z M14.6,151.2c-0.3,0.5-0.8,0.9-1.3,0.9
					c-0.7,0-1.2-0.6-1.2-1.4c0-1.6,1.5-1.9,2.9-1.9v0.4h0C15,149.9,15,150.5,14.6,151.2z"/>
			</g>
		</g>
		<g>
			<g>
				<path class="st1" d="M43.7,152c-0.4-0.5-0.7-0.9-0.7-1.8v-3c0-1.3,0.1-2.4-0.8-3.3c-0.7-0.7-2-1-2.9-1c-1.8,0-3.9,0.7-4.3,2.9
					c0,0.2,0.1,0.4,0.3,0.4l1.9,0.2c0.2,0,0.3-0.2,0.3-0.4c0.2-0.8,0.8-1.2,1.6-1.2c0.4,0,0.8,0.1,1.1,0.5c0.3,0.4,0.2,0.9,0.2,1.4
					v0.2c-1.1,0.1-2.6,0.2-3.6,0.7c-1.2,0.5-2.1,1.6-2.1,3.1c0,2,1.3,3,2.9,3c1.4,0,2.1-0.3,3.2-1.4c0.4,0.5,0.5,0.8,1.1,1.3
					c0.1,0.1,0.3,0.1,0.5,0l0,0c0.4-0.3,1.1-0.9,1.5-1.3C43.9,152.4,43.8,152.2,43.7,152z M39.9,151.2c-0.3,0.5-0.8,0.9-1.3,0.9
					c-0.7,0-1.2-0.6-1.2-1.4c0-1.6,1.5-1.9,2.9-1.9v0.4h0C40.3,149.9,40.3,150.5,39.9,151.2z"/>
			</g>
		</g>
	</g>
	<g>
		<path class="st2" d="M255.8,112.1c-9.4-23.9-27.8-44.4-53.1-55.7c-1.5-0.7-3-1.3-4.5-1.9c-4.7,7-11.3,12.7-19,16.3
			c5,1.2,9.9,2.8,14.8,5c20.3,9.1,35,25.5,42.3,44.8c1.5,4.1,2.8,8.3,3.6,12.5C243.1,124.7,248.6,117.4,255.8,112.1z"/>
	</g>
	<g>
		<path class="st2" d="M312,120.4c-7.4-7.4-17.6-11.9-28.9-11.9c-11.3,0-21.5,4.6-28.9,11.9c-7.4,7.4-12,17.6-12,28.8
			s4.6,21.5,12,28.8c7.4,7.4,17.6,11.9,28.9,11.9c11.3,0,21.5-4.6,28.9-11.9c7.4-7.4,12-17.6,12-28.8
			C324,137.9,319.4,127.8,312,120.4z"/>
	</g>
	<g>
		<path class="st2" d="M144.2,227.9c-5.5-1.2-10.9-2.9-16.2-5.3c-20.3-9.1-35-25.5-42.3-44.8c-1.2-3.2-2.2-6.5-3-9.8
			c-3.6,7.6-9.3,14.1-16.3,18.8c9.4,23.7,27.8,43.9,52.9,55.2c1.3,0.6,2.6,1.1,3.9,1.6C128.4,236.6,135.7,231.1,144.2,227.9z"/>
	</g>
	<g>
		<path class="st2" d="M239.9,165.3c-1.2,5.7-3,11.3-5.4,16.8c-9.1,20.3-25.6,34.9-44.9,42.3c-4.2,1.6-8.5,2.8-13,3.7
			c8.4,3.2,15.6,8.8,20.8,16c24.2-9.3,44.9-27.8,56.4-53.3c0.7-1.5,1.3-3,1.9-4.5C248.6,181.1,243.1,173.8,239.9,165.3z"/>
	</g>
	<g>
		<path class="st2" d="M160.1,230.4c-11.3,0-21.5,4.6-28.9,11.9c-7.4,7.4-12,17.6-12,28.8c0,11.3,4.6,21.5,12,28.8
			c7.4,7.4,17.6,11.9,28.9,11.9c11.3,0,21.5-4.6,28.9-11.9c7.4-7.4,12-17.6,12-28.8c0-11.3-4.6-21.5-12-28.8
			C181.6,235,171.4,230.4,160.1,230.4z"/>
	</g>
	<g>
		<path class="st2" d="M200.6,28.8c0-11.3-4.6-21.5-12-28.8C181.3-7.4,171.1-12,159.8-12c-11.3,0-21.5,4.6-28.9,11.9
			c-7.4,7.4-12,17.6-12,28.8s4.6,21.5,12,28.8c7.4,7.4,17.6,11.9,28.9,11.9c11.3,0,21.5-4.6,28.9-11.9
			C196.1,50.2,200.6,40.1,200.6,28.8z"/>
	</g>
	<g>
		<path class="st1" d="M169.1,5.2h-18.7c-1.9,0-3.4,1.5-3.4,3.4V49c0,1.9,1.5,3.4,3.4,3.4h18.7c1.9,0,3.4-1.5,3.4-3.4V8.6
			C172.5,6.7,171,5.2,169.1,5.2z M159.8,50.9c-1.2,0-2.2-1-2.2-2.2c0-1.2,1-2.2,2.2-2.2c1.2,0,2.2,1,2.2,2.2
			C162,49.9,161,50.9,159.8,50.9z M170.4,43.7c0,0.7-0.6,1.3-1.3,1.3h-18.7c-0.7,0-1.3-0.6-1.3-1.3v-35c0-0.7,0.6-1.3,1.3-1.3h18.7
			c0.7,0,1.3,0.6,1.3,1.3V43.7z"/>
	</g>
	<g>
		<path class="st1" d="M293.4,173.8c-1.9,0-5.7-0.3-9.8-2.6c-5.1-2.8-9.1-7.5-12.1-14c-0.1-0.2-0.2-0.5-0.3-0.7
			c-0.1-0.2-0.2-0.4-0.3-0.7c-4.5-9.5-3.6-16.7-2.1-21c1.7-4.7,4.4-7.2,4.5-7.3c0,0,0,0,0,0c1.6-1.2,3.6-2.6,4.4-2.7
			c1.1-0.1,1.7,0.8,1.9,1.4c3.5,7.3,5.3,11.3,5.3,11.9c0.1,1-0.8,1.9-0.9,2c0,0-0.1,0.1-0.1,0.1c-0.1,0.1-1.2,0.6-2.8,1.3
			c-1,0.5-1.7,1.1-2.1,2.1c-1.1,2.8,0.8,7.1,1.2,7.9c0,0,0,0,0,0c0,0,0,0,0,0l0.1,0.2c1.6,3.5,4.4,7.5,7.3,7.5c0.5,0,1-0.1,1.5-0.4
			c1.6-0.8,2.7-1.3,2.8-1.3c0,0,0.1,0,0.2,0c0,0,0.2,0,0.4,0c0.5,0,1.2,0.1,1.7,0.6c0.4,0.4,2.3,4.3,5.7,11.7
			c0.4,0.7,0.5,1.6-0.2,2.3c-0.6,0.6-3.3,1.3-4.8,1.6c0,0,0,0-0.1,0C294.8,173.8,294.3,173.8,293.4,173.8z M274.3,128.8
			c-0.6,0.6-10,9.4-2,26.4c0.1,0.2,0.2,0.5,0.3,0.7c0.1,0.2,0.2,0.5,0.3,0.7c6.5,14.1,16.5,15.6,20.5,15.6c0.6,0,1,0,1.1-0.1
			c1.6-0.4,3.6-0.9,4-1.2c0-0.1-0.1-0.3-0.1-0.3c0,0,0-0.1-0.1-0.1c-2.3-5-4.9-10.6-5.3-11.3c-0.1-0.1-0.3-0.1-0.6-0.1
			c0,0-0.1,0-0.1,0c-0.2,0.1-0.8,0.4-2.6,1.2c-0.7,0.3-1.5,0.5-2.2,0.5c-4.5,0-7.8-6.5-8.8-8.4l-0.1-0.3c0,0,0,0,0,0
			c-0.6-1.3-2.5-5.8-1.2-9.1c0.5-1.4,1.5-2.4,2.9-3c1.8-0.8,2.4-1.1,2.6-1.2c0.2-0.2,0.3-0.4,0.3-0.6c-0.3-0.9-3.3-7.4-5.2-11.4
			c0,0,0-0.1,0-0.1c0-0.1-0.1-0.3-0.2-0.3C277.5,126.5,275.7,127.7,274.3,128.8z"/>
	</g>
	<g>
		<g>
			<path class="st1" d="M136.6,276.8h6.8c0.1,0,0.1,0,0,0.1c-0.8,0.4-1.9,1.5-1.9,1.5c-0.8,0.8-1.4,1.2-2.7,1.2h-6.5
				c0,0,0-0.1,0-0.1c0.7-0.4,1.8-1.5,1.8-1.5C134.6,277.5,135.5,276.8,136.6,276.8"/>
		</g>
		<g>
			<path class="st1" d="M181.4,276.8h6.9c0,0,0,0,0,0.1c-0.8,0.4-1.9,1.5-1.9,1.5c-0.8,0.8-1.4,1.2-2.7,1.2h-6.5c0,0,0-0.1,0-0.1
				c0.7-0.4,1.8-1.5,1.8-1.5C179.4,277.5,180.3,276.8,181.4,276.8"/>
		</g>
		<g>
			<path class="st1" d="M147.8,276.8h6.8c0.1,0,0.1,0,0,0.1c-0.8,0.4-1.9,1.5-1.9,1.5c-0.8,0.8-1.4,1.2-2.7,1.2h-6.5
				c-0.1,0-0.1-0.1,0-0.1c0.7-0.4,1.8-1.5,1.8-1.5C145.8,277.5,146.7,276.8,147.8,276.8"/>
		</g>
		<g>
			<path class="st1" d="M159,276.8h6.8c0.1,0,0.1,0,0,0.1c-0.8,0.4-1.9,1.5-1.9,1.5c-0.8,0.8-1.4,1.2-2.6,1.2h-6.5c0,0,0-0.1,0-0.1
				c0.8-0.4,1.8-1.5,1.8-1.5C157,277.5,157.9,276.8,159,276.8"/>
		</g>
		<g>
			<path class="st1" d="M170.2,276.8h6.9c0,0,0,0,0,0.1c-0.8,0.4-1.9,1.5-1.9,1.5c-0.8,0.8-1.4,1.2-2.6,1.2H166c0,0,0-0.1,0-0.1
				c0.7-0.4,1.8-1.5,1.8-1.5C168.2,277.5,169.1,276.8,170.2,276.8"/>
		</g>
		<g>
			<path class="st1" d="M172.1,263.5c-4.3,0-7.2,2.2-7.2,5.6c0,3.1,2.6,5.2,6.5,5.2c1.3,0,2.4-0.2,3.7-0.5v-2.6
				c-0.9,1-2,1.4-3.2,1.4c-2.3,0-3.9-1.5-3.9-3.7c0-2.2,1.6-3.8,3.9-3.8c1.2,0,2.2,0.5,3,1.3v-2.6
				C174.1,263.6,173.1,263.5,172.1,263.5"/>
		</g>
		<g>
			<path class="st1" d="M139.9,265.4c1.6,0,3.5,0.3,4.3,1v-2.5h-11.3v2.5c0.8-0.7,2.5-1,4.3-1v6.8c0,1-0.1,1.3-0.5,1.8h3.6
				c-0.4-0.5-0.5-0.8-0.5-1.8L139.9,265.4"/>
		</g>
		<g>
			<path class="st1" d="M151.5,267.8c-0.6,0.2-1.8,0.3-2.4,0.3h-1v-2.7h1.3c1.2,0,3.1,0.2,3.9,0.9v-2.4H145c0.4,0.5,0.5,0.8,0.5,1.8
				v6.5c0,1-0.1,1.3-0.4,1.8h8.8v-2.5c-1.2,0.9-3.5,0.9-4.4,0.9h-1.3v-2.8h0.9c0.6,0,1.8,0.1,2.5,0.3L151.5,267.8"/>
		</g>
		<g>
			<path class="st1" d="M163.7,264.2c-1.3-0.4-3-0.7-4.3-0.7c-2.4,0-4.7,0.8-4.7,3.3c0,4.4,7.2,2.1,7.2,4.8c0,0.9-1.3,1.2-2.3,1.2
				c-1.8,0-3.1-0.3-4.7-1.4v2.2c1.2,0.4,2.8,0.6,4.6,0.6c2.5,0,4.8-0.7,4.8-3.3c0-4.6-7.1-2.5-7.1-4.8c0-0.9,1.2-1.2,2.2-1.2
				c1.7,0,3.5,0.5,4.5,1.5V264.2"/>
		</g>
		<g>
			<path class="st1" d="M181.9,272.7c-2.1,0-3.4-1.7-3.4-3.7c0-2.1,1.3-3.7,3.4-3.7c2,0,3.4,1.7,3.4,3.7
				C185.3,271,183.9,272.7,181.9,272.7 M182.2,263.7c-3.9,0-6.6,2.2-6.6,5.4c0,3.1,2.5,5.1,6.1,5.1c3.9,0,6.6-2.2,6.6-5.3
				C188.3,265.8,185.8,263.7,182.2,263.7z"/>
		</g>
	</g>
</g>
</svg>
