<?xml version="1.0" encoding="utf-8"?>
<!-- Generator: Adobe Illustrator 16.0.0, SVG Export Plug-In . SVG Version: 6.00 Build 0)  -->
<!DOCTYPE svg PUBLIC "-//W3C//DTD SVG 1.1//EN" "http://www.w3.org/Graphics/SVG/1.1/DTD/svg11.dtd">
<svg version="1.1" id="Layer_1" xmlns="http://www.w3.org/2000/svg" xmlns:xlink="http://www.w3.org/1999/xlink" x="0px" y="0px"
	 height="324px" viewBox="0 -12 427 324" style="enable-background:new 0 -12 427 324;" xml:space="preserve">
<style type="text/css">
<![CDATA[
	.st0{fill:#E6E6E5;}
	.st1{fill:none;stroke:#CDCCCC;}
	.st2{fill:#1D85C1;}
	.st3{enable-background:new    ;}
	.st4{fill:url(#SVGID_1_);}
	.st5{opacity:0.2;}
	.st6{opacity:0.4;}
	.st7{opacity:0.6;}
	.st8{opacity:0.8;}
	.st9{fill:#FFFFFF;}
	.st10{fill:#343434;}
]]>
</style>
<g>
	<g class="st3">
		<g class="st8">
			<path class="st0" d="M299.2,272.4c-48.5,0-88.1-39.5-88.1-88c0-48.5,39.6-88,88.1-88c48.5,0,88.1,39.5,88.1,88
				C387.3,232.8,347.8,272.4,299.2,272.4 M299.2,109.4c-41.4,0-75.1,33.7-75.1,75c0,41.4,33.7,75,75.1,75c41.4,0,75.1-33.7,75.1-75
				C374.4,143,340.6,109.4,299.2,109.4"/>
		</g>
		<g class="st8">
			<path class="st0" d="M299.2,252.3c-37.5,0-68-30.5-68-67.9c0-37.5,30.5-67.9,68-67.9c37.5,0,68,30.5,68,67.9
				C367.2,221.8,336.7,252.3,299.2,252.3 M299.2,129.5c-30.3,0-55,24.6-55,54.9s24.6,54.9,55,54.9c30.3,0,55-24.6,55-54.9
				S329.5,129.5,299.2,129.5"/>
		</g>
		<g class="st8">
			<path class="st0" d="M299.2,232.2c-26.4,0-47.9-21.5-47.9-47.8c0-26.4,21.5-47.8,47.9-47.8c26.4,0,47.9,21.5,47.9,47.8
				C347.1,210.7,325.6,232.2,299.2,232.2 M299.2,149.6c-19.2,0-34.9,15.7-34.9,34.8s15.7,34.8,34.9,34.8c19.2,0,34.9-15.7,34.9-34.8
				S318.5,149.6,299.2,149.6"/>
		</g>
		<g class="st8">
			<path class="st0" d="M299.2,292.5c-29,0-56.1-11.2-76.5-31.6c-20.4-20.4-31.7-47.6-31.7-76.5s11.2-56.1,31.7-76.5
				c20.4-20.4,47.7-31.6,76.5-31.6c29,0,56.1,11.2,76.5,31.6c20.4,20.4,31.7,47.6,31.7,76.5s-11.2,56.1-31.7,76.5
				C355.3,281.2,328.2,292.5,299.2,292.5 M299.2,89.2c-25.4,0-49.4,9.9-67.3,27.9C213.9,135,204,159,204,184.3s9.9,49.4,27.9,67.3
				c17.9,17.9,41.9,27.9,67.3,27.9c25.4,0,49.4-9.9,67.3-27.9c17.9-17.9,27.9-41.9,27.9-67.3s-9.9-49.4-27.9-67.3
				C348.6,99.1,324.6,89.2,299.2,89.2"/>
		</g>
		<g class="st8">
			<path class="st0" d="M299.2,312c-34.2,0-66.2-13.3-90.4-37.4c-24.1-24.1-37.4-56.2-37.4-90.2c0-34.1,13.3-66.1,37.4-90.3
				c24.1-24.1,56.2-37.4,90.4-37.4c34.2,0,66.2,13.3,90.4,37.4c24.1,24.1,37.4,56.2,37.4,90.3c0,34.1-13.3,66.1-37.4,90.2
				C365.4,298.7,333.4,312,299.2,312 M299.2,69.8c-30.7,0-59.5,11.9-81.2,33.6c-21.7,21.6-33.6,50.4-33.6,81s11.9,59.4,33.6,81
				c21.7,21.6,50.5,33.6,81.2,33.6c30.7,0,59.5-11.9,81.2-33.6c21.7-21.6,33.6-50.4,33.6-81s-11.9-59.4-33.6-81
				C358.7,81.6,329.9,69.8,299.2,69.8"/>
		</g>
		<g class="st7">
			<path class="st2" d="M299.2,272.4c-21.8,0-42.9-8.1-59.1-22.7c-16.1-14.6-26.3-34.3-28.5-55.8l13-1.4
				c1.9,18.3,10.6,35.2,24.3,47.6c13.8,12.5,31.7,19.3,50.4,19.3c41.4,0,75.1-33.7,75.1-75.1c0-24.3-11.9-47.2-31.8-61.2l7.6-10.6
				c23.3,16.5,37.2,43.3,37.2,71.8C387.3,232.8,347.8,272.4,299.2,272.4"/>
		</g>
		<g class="st6">
			<path class="st2" d="M299.2,252.3c-37.5,0-68-30.5-68-67.9c0-8.4,1.5-16.7,4.5-24.5l12.1,4.6c-2.5,6.3-3.7,13-3.7,19.9
				c0,30.2,24.6,54.9,55,54.9c30.3,0,55-24.6,55-54.9c0-8.7-2.1-17.2-5.9-24.9l11.6-5.9c4.9,9.6,7.4,20,7.4,30.8
				C367.2,221.8,336.7,252.3,299.2,252.3"/>
		</g>
		<g class="st5">
			<path class="st2" d="M299.2,232.2c-26.4,0-47.9-21.5-47.9-47.8c0-13.7,5.9-26.8,16.2-35.9l8.6,9.7c-7.5,6.6-11.8,16.1-11.8,26.1
				c0,19.2,15.7,34.8,34.9,34.8c19.2,0,34.9-15.7,34.9-34.8h13C347.1,210.7,325.6,232.2,299.2,232.2"/>
		</g>
		<g class="st8">
			<path class="st2" d="M299.2,292.5c-20.6,0-40.8-5.8-58.2-16.8c-16.9-10.8-30.5-25.9-39.2-43.8l11.7-5.7
				c7.7,15.8,19.7,29.2,34.5,38.6c15.2,9.7,33,14.8,51.1,14.8c25.4,0,49.4-9.9,67.3-27.9c17.9-17.9,27.9-41.9,27.9-67.3
				c0-21-6.7-40.7-19.2-57.3c-12.2-16.1-29.5-28.1-48.8-33.8l3.7-12.4c21.9,6.5,41.6,20.2,55.5,38.4c14.4,18.9,21.9,41.5,21.9,65.2
				c0,28.8-11.2,56.1-31.7,76.5C355.3,281.2,328.1,292.5,299.2,292.5"/>
		</g>
	</g>
	<g>
		<path class="st2" d="M299.2,312c-36.9,0-72-16-96.3-43.7l9.8-8.5c21.8,24.9,53.4,39.3,86.5,39.3c30.7,0,59.5-11.9,81.2-33.6
			c21.7-21.6,33.6-50.4,33.6-81s-11.9-59.4-33.6-81c-21.7-21.6-50.5-33.6-81.2-33.6v-13c34.2,0,66.2,13.3,90.4,37.4
			c24.1,24.1,37.4,56.2,37.4,90.2c0,34-13.3,66.1-37.4,90.3C365.4,298.7,333.4,312,299.2,312"/>
		<path class="st2" d="M284.8,190.9v2.2h-9.7v-2.2h3.9v-10.6c-0.6,0.9-3,2.2-4.4,2.2v-2.3c1.6,0,4.2-2.2,4.4-2.6h2.5v13.3H284.8"/>
		<path class="st2" d="M292.4,193.3c-4,0-6.8-3.5-6.8-8.2c0-4.8,2.9-8.2,6.8-8.2c3.9,0,6.8,3.5,6.8,8.2
			C299.2,189.9,296.3,193.3,292.4,193.3 M292.4,179.2c-2.7,0-4.4,2.5-4.4,6s1.8,5.9,4.4,5.9s4.4-2.4,4.4-5.9
			C296.8,181.5,295,179.2,292.4,179.2"/>
		<path class="st2" d="M307.7,193.3c-4,0-6.8-3.5-6.8-8.2c0-4.8,2.9-8.2,6.8-8.2c3.9,0,6.8,3.5,6.8,8.2
			C314.6,189.9,311.7,193.3,307.7,193.3 M307.7,179.2c-2.7,0-4.4,2.5-4.4,6s1.8,5.9,4.4,5.9c2.6,0,4.4-2.4,4.4-5.9
			C312.1,181.5,310.3,179.2,307.7,179.2"/>
		<path class="st2" d="M315.3,178.9c0-1.3,1.1-2.3,2.5-2.3c1.4,0,2.5,1,2.5,2.3c0,1.3-1.1,2.3-2.5,2.3
			C316.4,181.2,315.3,180.2,315.3,178.9 M315.9,187.5l4.4-5.3l4.2-5.4l0.6,0.5l-4.3,5.3l-4.3,5.5L315.9,187.5 M319.2,178.9
			c0-0.9-0.6-1.5-1.4-1.5c-0.8,0-1.4,0.8-1.4,1.5c0,0.9,0.6,1.5,1.4,1.5C318.6,180.5,319.2,179.8,319.2,178.9 M320.8,185.9
			c0-1.3,1.1-2.3,2.4-2.3c1.4,0,2.5,1,2.5,2.3c0,1.3-1.1,2.3-2.5,2.3C321.9,188.1,320.8,187.2,320.8,185.9 M324.7,185.9
			c0-0.9-0.7-1.5-1.4-1.5c-0.8,0-1.4,0.8-1.4,1.5c0,0.9,0.6,1.5,1.4,1.5C324.1,187.4,324.7,186.7,324.7,185.9"/>
	</g>
	<circle class="st10" cx="203.2" cy="258.3" r="2.9"/>
	<path class="st1" d="M0,250.1h194.9l6.3,6.3"/>
	<circle class="st10" cx="204.6" cy="221.8" r="2.9"/>
	<path class="st1" d="M0,213.5h196.2l6.3,6.3"/>
	<circle class="st10" cx="217.6" cy="186.4" r="2.9"/>
	<path class="st1" d="M0,178.2h209.3l6.3,6.2"/>
	<circle class="st10" cx="245.1" cy="155.3" r="2.9"/>
	<path class="st1" d="M0,147.1h236.7l6.3,6.2"/>
	<circle class="st10" cx="279.4" cy="148.1" r="2.9"/>
	<path class="st1" d="M277.3,146.1L245.2,114H0"/>
	<g>
		<path class="st2" d="M4.8,101.3v1H0.4v-1h1.7v-4.8c-0.3,0.3-1.3,1-1.9,1v-1c0.8,0,1.8-1,1.9-1.2h1.1v5.9H4.8"/>
		<path class="st2" d="M8.5,102.3c-1.7,0-3-1.1-3-2.6c0-1.1,0.9-1.8,1.6-2.2c-0.8-0.3-1.3-1-1.3-1.7c0-1.4,1.4-2.3,2.7-2.3
			c1.3,0,2.7,0.8,2.7,2.3c0,0.8-0.6,1.4-1.3,1.7c0.9,0.3,1.6,1.1,1.6,2.2C11.7,101.3,10.3,102.3,8.5,102.3 M8.6,98.1
			c-1,0-1.9,0.6-1.9,1.6s1,1.6,1.9,1.6s1.9-0.6,1.9-1.6S9.5,98.1,8.6,98.1 M8.6,97.2c0.8,0,1.6-0.4,1.6-1.4c0-0.9-0.8-1.3-1.6-1.3
			C7.8,94.5,7,95,7,95.8C6.9,96.8,7.9,97.2,8.6,97.2"/>
		<path class="st2" d="M12.8,95.2c0-1,0.9-1.7,1.8-1.7c1.1,0,1.8,0.8,1.8,1.7c0,1-0.9,1.7-1.8,1.7C13.6,97.1,12.8,96.2,12.8,95.2
			 M13.2,101.8l3.4-4.1l3.2-4.2l0.5,0.4L17,98.1l-3.4,4.2L13.2,101.8 M15.8,95.2c0-0.6-0.5-1.2-1.1-1.2c-0.6,0-1.1,0.5-1.1,1.2
			c0,0.6,0.5,1.2,1.1,1.2S15.8,95.9,15.8,95.2 M17.1,100.5c0-1,0.9-1.7,1.8-1.7c1.1,0,1.8,0.8,1.8,1.7s-0.9,1.7-1.8,1.7
			C17.8,102.4,17.1,101.5,17.1,100.5 M20,100.5c0-0.6-0.5-1.2-1.1-1.2c-0.6,0-1.1,0.5-1.1,1.2c0,0.6,0.5,1.2,1.1,1.2
			C19.6,101.7,20,101.2,20,100.5"/>
		<path class="st2" d="M25.4,102.3v-8.6H29c1.5,0,2.6,1.4,2.6,2.7c0,1.4-1,2.8-2.5,2.8h-2.6v3.1H25.4L25.4,102.3 M26.5,98.2H29
			c0.9,0,1.5-0.9,1.5-1.8c0-1-0.8-1.7-1.5-1.7h-2.5V98.2"/>
		<path class="st2" d="M31.5,102.3l3.6-8.6h0.9l3.6,8.6h-1.2l-1-2.5h-3.6l-1,2.5H31.5 M35.5,94.9l-1.6,4H37L35.5,94.9"/>
		<path class="st2" d="M40.5,102.3v-8.6h1.1v8.6H40.5"/>
		<path class="st2" d="M43.7,102.3v-8.6h3c2.8,0,4.2,1.9,4.2,4.3c0,2.6-1.6,4.3-4.2,4.3H43.7 M46.7,94.6h-1.9v6.7h1.9
			c1.9,0,3-1.4,3-3.3C49.7,96,48.6,94.6,46.7,94.6"/>
		<path class="st2" d="M60.5,95.5c-0.4-0.4-1.3-0.9-2.4-0.9c-1.3,0-1.9,0.5-1.9,1.4c0,1,0.8,1.2,2.3,1.5c1.8,0.4,2.9,0.9,2.9,2.5
			s-1.4,2.4-3.1,2.4c-1.3,0-2.5-0.4-3.5-1.2l0.5-1c0.5,0.5,1.7,1.2,3,1.2c1.2,0,1.9-0.4,1.9-1.3c0-1-0.9-1.3-2.5-1.6
			c-1.7-0.4-2.7-0.9-2.7-2.3c0-1.6,1.3-2.6,3.1-2.6c1.2,0,2.1,0.4,2.8,1L60.5,95.5"/>
		<path class="st2" d="M68.8,101.3v1h-5.8v-8.6h5.7v1H64v2.8h4.1v0.9h-4v3H68.8"/>
		<path class="st2" d="M69.4,102.3l3.6-8.6h0.9l3.6,8.6h-1.2l-1-2.5h-3.6l-1,2.5H69.4 M73.4,94.9l-1.6,4h3.1L73.4,94.9"/>
		<path class="st2" d="M78.6,102.3v-8.6h3.7c1.5,0,2.6,1.4,2.6,2.7c0,1.2-0.8,2.3-1.8,2.6l2.1,3.3h-1.2l-1.9-3.1h-2.3v3.1H78.6
			L78.6,102.3 M79.7,98.2h2.6c0.9,0,1.5-0.9,1.5-1.8c0-1-0.8-1.7-1.5-1.7h-2.5v3.6"/>
		<path class="st2" d="M90.2,93.5c1.5,0,2.7,0.8,3.2,1.8l-0.9,0.5c-0.5-1.1-1.5-1.4-2.4-1.4c-1.9,0-2.9,1.7-2.9,3.3
			c0,1.8,1.3,3.5,3,3.5c0.9,0,1.9-0.4,2.5-1.5l0.9,0.5c-0.5,1.3-2.1,2.1-3.5,2.1c-2.4,0-4-2.3-4-4.4C86,95.8,87.6,93.5,90.2,93.5"/>
		<path class="st2" d="M101.8,93.6v8.6h-1.1v-3.9H96v3.9h-1.1v-8.6H96v3.7h4.8v-3.7H101.8"/>
		<path class="st2" d="M0.1,134.6c0-1.3,0.3-2.3,1.9-3.1c1-0.5,2.2-1,2.2-1.8c0-0.5-0.5-1.1-1.4-1.1c-1,0-1.5,0.6-1.8,1l-0.6-0.8
			c0.2-0.3,1.3-1.2,2.7-1.2c1.5,0,2.4,0.9,2.4,1.9c0,1.3-1.2,1.8-1.9,2.3c-0.8,0.3-1.9,1-2.1,1.9h4.1v1H0.1"/>
		<path class="st2" d="M10.3,136.1V134H6.4v-1l4.2-5.5h0.8v5.4h1.1v1h-1.1v2.1L10.3,136.1 M7.6,133h2.9v-3.8L7.6,133"/>
		<path class="st2" d="M13.4,127.5c0-1,0.9-1.7,1.8-1.7c1.1,0,1.8,0.8,1.8,1.7s-0.9,1.7-1.8,1.7C14.2,129.4,13.4,128.6,13.4,127.5
			 M13.7,134.1l3.4-4.1l3.2-4.2l0.5,0.4l-3.4,4.1l-3.4,4.2L13.7,134.1 M16.3,127.5c0-0.6-0.5-1.2-1.1-1.2c-0.6,0-1.1,0.5-1.1,1.2
			c0,0.6,0.5,1.2,1.1,1.2S16.3,128.2,16.3,127.5 M17.6,132.9c0-1,0.9-1.7,1.8-1.7c1.1,0,1.8,0.8,1.8,1.7s-0.9,1.7-1.8,1.7
			S17.6,133.9,17.6,132.9 M20.5,132.9c0-0.6-0.5-1.2-1.1-1.2c-0.6,0-1.1,0.5-1.1,1.2s0.5,1.2,1.1,1.2
			C20.1,134.1,20.5,133.6,20.5,132.9"/>
		<path class="st2" d="M31.8,133.6v1h-5.8v-8.6h5.7v1H27v2.8h4v0.9h-4v3H31.8"/>
		<path class="st2" d="M40.8,134.6v-6.7l-2.8,5.1h-0.6l-2.9-5.1v6.7h-1.1v-8.6h1.2l3.1,5.6l3.1-5.6h1.2v8.6H40.8"/>
		<path class="st2" d="M43,134.6l3.6-8.6h0.9l3.6,8.6h-1.2l-1-2.5h-3.6l-1,2.5H43 M47,127.2l-1.6,4h3.2L47,127.2"/>
		<path class="st2" d="M52.2,134.6v-8.6h1.1v8.6H52.2"/>
		<path class="st2" d="M55.3,134.6v-8.6h1.1v7.7h4.8v1H55.3"/>
		<path class="st2" d="M72.6,134.6v-6.7l-2.8,5.1h-0.6l-2.9-5.1v6.7h-1.1v-8.6h1.2l3.1,5.6l3.1-5.6h1.2v8.6H72.6"/>
		<path class="st2" d="M74.9,134.6l3.6-8.6h0.9l3.6,8.6h-1.2l-1-2.5h-3.6l-1,2.5H74.9 M78.9,127.2l-1.6,4h3.1L78.9,127.2"/>
		<path class="st2" d="M84.1,134.6v-8.6h3.7c1.5,0,2.6,1.4,2.6,2.7c0,1.2-0.8,2.3-1.8,2.6l2.1,3.3h-1.2l-1.9-3.1h-2.3v3.1H84.1
			 M85.2,130.5h2.6c0.9,0,1.5-0.9,1.5-1.8c0-1-0.8-1.7-1.5-1.7h-2.5v3.6"/>
		<path class="st2" d="M92.1,134.6v-8.6h1.1v4.8l4.4-4.8h1.2l-3.5,3.8l3.7,4.9h-1.2l-3.1-4.2l-1.5,1.5v2.6L92.1,134.6"/>
		<path class="st2" d="M105.8,133.6v1H100v-8.6h5.7v1h-4.6v2.8h4v0.9h-4v3H105.8"/>
		<path class="st2" d="M113.6,126.9h-3v7.7h-1.1v-7.7h-3v-1h7L113.6,126.9L113.6,126.9"/>
		<path class="st2" d="M114.9,134.6v-8.6h1.1v8.6H114.9"/>
		<path class="st2" d="M119.1,128v6.6H118v-8.6h0.9l5.3,6.7v-6.7h1.1v8.6h-1L119.1,128"/>
		<path class="st2" d="M133.5,133.4c-0.8,0.9-1.6,1.2-2.6,1.2c-2.3,0-4-2.2-4-4.4s1.7-4.3,4-4.3c1.6,0,2.7,0.8,3.2,1.8l-0.9,0.5
			c-0.5-1-1.4-1.5-2.5-1.5c-1.7,0-2.9,1.6-2.9,3.3c0,1.8,1.3,3.3,3,3.3c1,0,1.7-0.4,2.5-1.4v-1.2h-1.8v-0.9h2.8v4.3h-1L133.5,133.4
			L133.5,133.4"/>
		<path class="st2" d="M5.6,165.3c0,1.5-1.2,2.5-2.9,2.5c-1.2,0-2.2-0.4-2.7-1.3l0.8-0.8c0.3,0.6,1,1.1,1.9,1.1
			c1.1,0,1.8-0.5,1.8-1.5s-0.8-1.6-2.1-1.6H2.2v-0.9h0.3c1.2,0,1.8-0.6,1.8-1.5c0-0.9-0.6-1.3-1.6-1.3c-0.9,0-1.6,0.4-1.9,1.1
			l-0.6-0.6c0.4-0.9,1.5-1.4,2.7-1.4c1.5,0,2.6,0.9,2.6,2.2c0,1-0.5,1.8-1.5,1.9C5,163.3,5.6,164.1,5.6,165.3"/>
		<path class="st2" d="M9.8,166.1c-1.7,0-3-1.5-3-3.7s1.3-3.7,3-3.7c1.7,0,3,1.5,3,3.7C13,164.6,11.7,166.1,9.8,166.1 M9.8,159.7
			c-1.2,0-2.1,1.1-2.1,2.7s0.9,2.7,2.1,2.7c1.2,0,1.9-1.1,1.9-2.7C11.9,160.8,11,159.7,9.8,159.7"/>
		<path class="st2" d="M14.2,159.1c0-1,0.9-1.7,1.8-1.7c1.1,0,1.8,0.8,1.8,1.7c0,1-0.9,1.7-1.8,1.7C15,160.8,14.2,160,14.2,159.1
			 M14.6,165.6l3.4-4.1l3.2-4.2l0.5,0.4l-3.4,4.2l-3.4,4.2L14.6,165.6 M17.1,159.1c0-0.6-0.5-1.2-1.1-1.2c-0.6,0-1.1,0.5-1.1,1.2
			c0,0.6,0.5,1.2,1.1,1.2C16.6,160.3,17.1,159.7,17.1,159.1 M18.4,164.4c0-1,0.9-1.7,1.8-1.7c1.1,0,1.8,0.8,1.8,1.7
			s-0.9,1.7-1.8,1.7S18.4,165.3,18.4,164.4 M21.4,164.4c0-0.6-0.5-1.2-1.1-1.2c-0.6,0-1.1,0.5-1.1,1.2s0.5,1.2,1.1,1.2
			S21.4,165,21.4,164.4"/>
		<path class="st2" d="M31.8,159.2c-0.4-0.4-1.3-0.9-2.4-0.9c-1.3,0-1.9,0.5-1.9,1.4c0,1,0.8,1.2,2.3,1.5c1.8,0.4,2.9,0.9,2.9,2.5
			c0,1.6-1.4,2.4-3.1,2.4c-1.3,0-2.5-0.4-3.5-1.2l0.5-1c0.5,0.5,1.7,1.2,3,1.2c1.2,0,1.9-0.4,1.9-1.3c0-1-0.9-1.3-2.5-1.6
			c-1.7-0.4-2.7-0.9-2.7-2.3c0-1.6,1.3-2.6,3.1-2.6c1.2,0,2.1,0.4,2.8,1L31.8,159.2"/>
		<path class="st2" d="M40,165v1h-5.8v-8.6h5.7v1h-4.6v2.8h4v0.9h-4v2.9H40"/>
		<path class="st2" d="M40.6,166l3.6-8.6h0.9l3.6,8.6h-1.2l-1-2.5h-3.6l-1,2.5H40.6 M44.6,158.6l-1.6,4h3.1L44.6,158.6"/>
		<path class="st2" d="M49.8,166v-8.6h3.7c1.5,0,2.6,1.4,2.6,2.7c0,1.2-0.8,2.3-1.8,2.6l2.1,3.3h-1.2l-1.9-3.1h-2.3v3.1H49.8
			 M50.9,162h2.6c0.9,0,1.5-0.9,1.5-1.8c0-1-0.8-1.7-1.5-1.7H51L50.9,162"/>
		<path class="st2" d="M61.4,157.3c1.5,0,2.7,0.8,3.2,1.8l-0.9,0.5c-0.5-1.1-1.5-1.4-2.4-1.4c-1.9,0-2.9,1.7-2.9,3.3
			c0,1.8,1.3,3.5,3,3.5c0.9,0,1.9-0.4,2.5-1.5l0.9,0.5c-0.5,1.3-2.1,2.1-3.5,2.1c-2.4,0-4-2.3-4-4.4
			C57.3,159.5,58.8,157.3,61.4,157.3"/>
		<path class="st2" d="M73.1,157.3v8.6H72v-3.9h-4.8v3.9h-1.1v-8.6h1.1v3.7H72v-3.7H73.1"/>
		<path class="st2" d="M84.1,165v1h-5.8v-8.6H84v1h-4.6v2.8h4v0.9h-4v2.9h4.8"/>
		<path class="st2" d="M86.7,159.4v6.6h-1.1v-8.6h0.9l5.3,6.7v-6.7h1.1v8.6h-1L86.7,159.4"/>
		<path class="st2" d="M101.1,164.8c-0.8,0.9-1.6,1.2-2.6,1.2c-2.3,0-4-2.2-4-4.4c0-2.3,1.7-4.3,4-4.3c1.6,0,2.7,0.8,3.2,1.8
			l-0.9,0.5c-0.5-1-1.4-1.5-2.5-1.5c-1.7,0-2.9,1.6-2.9,3.3c0,1.8,1.3,3.3,3,3.3c1,0,1.7-0.4,2.5-1.4v-1.2h-1.8v-0.9h2.8v4.3h-1
			L101.1,164.8"/>
		<path class="st2" d="M103.7,166v-8.6h1.1v8.6H103.7"/>
		<path class="st2" d="M107.9,159.4v6.6h-1.1v-8.6h0.9l5.3,6.7v-6.7h1.1v8.6h-1L107.9,159.4"/>
		<path class="st2" d="M122,165v1h-5.8v-8.6h5.7v1h-4.6v2.8h4v0.9h-4v2.9h4.8"/>
		<path class="st2" d="M3.1,201c-1.7,0-3-1.1-3-2.6c0-1.1,0.9-1.8,1.6-2.2c-0.8-0.3-1.3-1-1.3-1.7c0-1.4,1.4-2.3,2.7-2.3
			c1.3,0,2.7,0.8,2.7,2.3c0,0.8-0.6,1.4-1.3,1.7c0.9,0.3,1.6,1.1,1.6,2.2C6.3,200,4.9,201,3.1,201 M3.1,196.8c-1,0-1.9,0.6-1.9,1.6
			c0,1,1,1.6,1.9,1.6c1,0,1.9-0.6,1.9-1.6C5.2,197.4,4.1,196.8,3.1,196.8 M3.2,195.9c0.8,0,1.6-0.5,1.6-1.4c0-0.9-0.8-1.3-1.6-1.3
			c-0.9,0-1.6,0.5-1.6,1.3C1.5,195.5,2.4,195.9,3.2,195.9"/>
		<path class="st2" d="M7.4,194c0-1,0.9-1.7,1.8-1.7c1.1,0,1.8,0.8,1.8,1.7c0,1-0.9,1.7-1.8,1.7C8.2,195.7,7.4,194.9,7.4,194
			 M7.8,200.5l3.4-4.1l3.2-4.2l0.5,0.4l-3.4,4.1L8.2,201L7.8,200.5 M10.3,194c0-0.6-0.5-1.2-1.1-1.2c-0.6,0-1.1,0.5-1.1,1.2
			c0,0.6,0.5,1.2,1.1,1.2C9.8,195.1,10.3,194.6,10.3,194 M11.6,199.2c0-1,0.9-1.7,1.8-1.7c1.1,0,1.8,0.8,1.8,1.7s-0.9,1.7-1.8,1.7
			C12.4,201.1,11.6,200.2,11.6,199.2 M14.6,199.2c0-0.6-0.5-1.2-1.1-1.2c-0.6,0-1.1,0.5-1.1,1.2s0.5,1.2,1.1,1.2
			S14.6,199.9,14.6,199.2"/>
		<path class="st2" d="M25.1,194.2c-0.4-0.4-1.3-0.9-2.4-0.9c-1.3,0-1.9,0.5-1.9,1.4c0,1,0.8,1.2,2.3,1.5c1.8,0.4,2.9,0.9,2.9,2.5
			c0,1.6-1.4,2.4-3.1,2.4c-1.3,0-2.5-0.4-3.5-1.2l0.5-1c0.5,0.5,1.7,1.2,3,1.2c1.2,0,1.9-0.4,1.9-1.3c0-1-0.9-1.3-2.5-1.6
			c-1.7-0.4-2.7-0.9-2.7-2.3c0-1.6,1.3-2.6,3.1-2.6c1.2,0,2.1,0.4,2.8,1L25.1,194.2"/>
		<path class="st2" d="M26.8,196.7c0-2.3,1.7-4.3,4.1-4.3c2.4,0,4,2.3,4,4.4c0,2.3-1.7,4.3-4.1,4.3C28.5,201,26.9,198.8,26.8,196.7
			 M30.9,200c1.8,0,2.9-1.7,2.9-3.3c0-1.7-1.2-3.3-2.9-3.3c-1.8,0-2.9,1.7-2.9,3.3C28,198.4,29.2,200,30.9,200"/>
		<path class="st2" d="M40.1,192.2c1.5,0,2.7,0.8,3.2,1.8l-0.9,0.5c-0.5-1.1-1.5-1.4-2.4-1.4c-1.9,0-2.9,1.7-2.9,3.3
			c0,1.8,1.3,3.5,3,3.5c0.9,0,1.9-0.4,2.5-1.5l0.9,0.5c-0.5,1.3-2.1,2.1-3.5,2.1c-2.4,0-4-2.3-4-4.4C36,194.5,37.5,192.2,40.1,192.2
			"/>
		<path class="st2" d="M44.8,200.9v-8.6h1.1v8.6H44.8"/>
		<path class="st2" d="M47,200.9l3.6-8.6h0.9l3.6,8.6h-1.2l-1-2.5h-3.6l-1,2.5H47 M51,193.5l-1.6,4h3.1L51,193.5"/>
		<path class="st2" d="M56.2,200.9v-8.6h1.1v7.7H62v1H56.2L56.2,200.9"/>
		<path class="st2" d="M73.5,200.9v-6.6l-2.8,5.1H70l-2.9-5.1v6.7H66v-8.6h1.2l3.1,5.6l3.1-5.6h1.1v8.6h-1.1"/>
		<path class="st2" d="M82.5,199.9v1h-5.8v-8.6h5.7v1h-4.6v2.8h4v0.9h-4v3H82.5"/>
		<path class="st2" d="M84.1,200.9v-8.6h3c2.8,0,4.2,1.9,4.2,4.3c0,2.6-1.6,4.3-4.2,4.3H84.1 M87,193.3h-1.9v6.7H87
			c1.9,0,3-1.4,3-3.3C90.2,194.7,89,193.3,87,193.3"/>
		<path class="st2" d="M92.8,200.9v-8.6h1.1v8.6H92.8"/>
		<path class="st2" d="M95,200.9l3.6-8.6h0.9l3.6,8.6h-1.2l-1-2.5h-3.6l-1,2.5H95 M99,193.5l-1.6,4h3.1L99,193.5"/>
		<path class="st2" d="M0.1,238c0-1.3,0.3-2.3,1.9-3.1c1-0.5,2.2-1,2.2-1.8c0-0.5-0.5-1.1-1.4-1.1c-1,0-1.5,0.6-1.8,1l-0.8-0.9
			c0.2-0.3,1.3-1.2,2.7-1.2c1.5,0,2.4,0.9,2.4,1.9c0,1.3-1.2,1.8-1.9,2.3c-0.8,0.3-1.9,1-2.1,1.9h4.1v1H0.1"/>
		<path class="st2" d="M9.9,238.1c-1.7,0-3-1.5-3-3.7s1.3-3.7,3-3.7c1.7,0,3,1.5,3,3.7S11.7,238.1,9.9,238.1 M9.9,231.8
			c-1.2,0-2.1,1.1-2.1,2.7s0.9,2.7,2.1,2.7c1.2,0,1.9-1.1,1.9-2.7S11,231.8,9.9,231.8"/>
		<path class="st2" d="M14.2,231c0-1,0.9-1.7,1.8-1.7c1.1,0,1.8,0.8,1.8,1.7s-0.9,1.7-1.8,1.7C15,232.8,14.2,232.1,14.2,231
			 M14.6,237.6l3.4-4.1l3.2-4.2l0.5,0.4l-3.4,4.1L15,238L14.6,237.6 M17.1,231c0-0.6-0.5-1.2-1.1-1.2c-0.6,0-1.1,0.5-1.1,1.2
			s0.5,1.2,1.1,1.2C16.6,232.2,17.1,231.6,17.1,231 M18.4,236.4c0-1,0.9-1.7,1.8-1.7c1.1,0,1.8,0.8,1.8,1.7c0,1-0.9,1.7-1.8,1.7
			S18.4,237.4,18.4,236.4 M21.4,236.4c0-0.6-0.5-1.2-1.1-1.2c-0.6,0-1.1,0.5-1.1,1.2c0,0.6,0.5,1.2,1.1,1.2S21.4,237,21.4,236.4"/>
		<path class="st2" d="M25.5,238l3.6-8.6h0.9l3.6,8.6h-1.2l-1-2.5h-3.6l-1,2.5H25.5 M29.5,230.7l-1.6,4H31L29.5,230.7"/>
		<path class="st2" d="M34.6,238v-8.6h5.7v1h-4.6v2.9h3.9v0.9h-3.9v3.9H34.6"/>
		<path class="st2" d="M41.6,238v-8.6h5.7v1h-4.6v2.9h3.9v0.9h-3.9v3.9H41.6"/>
		<path class="st2" d="M48.8,238v-8.6h1.1v8.6H48.8"/>
		<path class="st2" d="M51.9,238v-8.6H53v7.7h4.8v1H51.9L51.9,238"/>
		<path class="st2" d="M59,238v-8.6h1.1v8.6H59"/>
		<path class="st2" d="M61.3,238l3.6-8.6h0.9l3.6,8.6h-1.2l-1-2.5h-3.6l-1,2.5H61.3 M65.3,230.7l-1.6,4h3.1L65.3,230.7"/>
		<path class="st2" d="M75.8,230.4h-3v7.7h-1.1v-7.7h-3v-1h7L75.8,230.4"/>
		<path class="st2" d="M82.9,237v1h-5.8v-8.6h5.7v1h-4.6v2.8h4v0.9h-4v3H82.9"/>
		<path class="st2" d="M89.4,231.2c-0.4-0.4-1.3-0.9-2.4-0.9c-1.3,0-1.9,0.5-1.9,1.4c0,1,0.8,1.2,2.3,1.5c1.8,0.4,2.9,0.9,2.9,2.5
			c0,1.6-1.4,2.4-3.1,2.4c-1.3,0-2.5-0.4-3.5-1.2l0.5-1c0.5,0.5,1.7,1.2,3,1.2c1.2,0,1.9-0.4,1.9-1.3c0-1-0.9-1.3-2.5-1.6
			c-1.7-0.4-2.7-0.9-2.7-2.3c0-1.6,1.3-2.6,3.1-2.6c1.2,0,2.1,0.4,2.8,1L89.4,231.2"/>
	</g>
	
		<linearGradient id="SVGID_1_" gradientUnits="userSpaceOnUse" x1="529.3848" y1="355.7646" x2="689.4521" y2="355.7646" gradientTransform="matrix(0.9259 0 0 0.9259 -490.1572 -293.9917)">
		<stop  offset="0" style="stop-color:#2376BB"/>
		<stop  offset="1" style="stop-color:#4097D3"/>
	</linearGradient>
	<path class="st4" d="M0-12v79.3h100.1l15.6,15.6V67.3h32.5V-12H0z"/>
	<g>
		<path class="st9" d="M11.2,11.5c0-4.9,3.7-9.2,8.5-9.2c5.1,0,8.5,4.6,8.5,9.2c0,4.9-3.7,9.2-8.5,9.2
			C14.7,20.7,11.2,16.2,11.2,11.5 M19.8,18.7c3.9,0,6.2-3.7,6.2-7.1c0-3.7-2.5-7.1-6.2-7.1c-3.9,0-6.3,3.6-6.3,7.1
			C13.6,15.2,16.1,18.7,19.8,18.7"/>
		<path class="st9" d="M33.8,6.8v13.8h-2.3V2.5h1.8l11.2,14.1v-14h2.3v18H45L33.8,6.8"/>
		<path class="st9" d="M51.2,20.6V2.5h2.3v16.1h10.2v2.1H51.2"/>
		<path class="st9" d="M66.3,20.6v-18h2.3v18H66.3"/>
		<path class="st9" d="M75.2,6.8v13.8H73V2.5h1.8L86,16.6v-14h2.3v18h-1.9L75.2,6.8"/>
		<path class="st9" d="M105,18.6v2.1H92.6V2.5h12.1v2.1h-9.8v5.8h8.5v1.9h-8.5v6.3H105"/>
		<path class="st9" d="M23.1,36.9c-0.9-1-2.8-1.8-5-1.8c-2.8,0-4.1,1.1-4.1,2.9c0,1.9,1.5,2.5,4.8,3.2c3.8,0.9,6.2,1.9,6.2,5.2
			c0,3.5-2.8,5.1-6.6,5.1c-2.8,0-5.3-0.9-7.4-2.6l1.1-1.9c1.1,1.2,3.6,2.4,6.4,2.4c2.6,0,4.1-1,4.1-2.8c0-2.1-1.8-2.7-5.2-3.5
			c-3.7-0.9-5.6-1.8-5.6-4.8c0-3.5,2.8-5.4,6.5-5.4c2.4,0,4.4,0.9,5.9,2.1L23.1,36.9"/>
		<path class="st9" d="M41,35.2h-6.3v16.1h-2.3V35.2h-6.3v-2.1H41V35.2"/>
		<path class="st9" d="M43.6,51.3V33.1h7.8c3.2,0,5.5,2.9,5.5,5.8c0,2.5-1.5,4.8-3.8,5.4l4.4,6.9h-2.6l-4.1-6.5h-4.8v6.5H43.6
			 M45.9,42.6h5.5c1.9,0,3.1-1.8,3.1-3.8c0-2.1-1.5-3.8-3.2-3.8h-5.3L45.9,42.6"/>
		<path class="st9" d="M58.5,51.3l7.5-18.1h1.8l7.5,18.1h-2.5L70.6,46H63l-2.2,5.3H58.5 M66.9,35.7l-3.4,8.4h6.6L66.9,35.7"/>
		<path class="st9" d="M89,35.2h-6.3v16.1h-2.3V35.2h-6.3v-2.1H89V35.2"/>
		<path class="st9" d="M104,49.2v2.1H91.7V33.1h12.1v2.1h-9.8V41h8.5V43h-8.5v6.3H104"/>
		<path class="st9" d="M120.1,48.8c-1.6,1.7-3.5,2.6-5.5,2.6c-4.8,0-8.4-4.5-8.4-9.3c0-4.9,3.6-9.2,8.4-9.2c3.5,0,5.7,1.6,6.9,4
			l-1.7,1.2c-1.1-2.1-3-3.1-5.2-3.1c-3.7,0-6.1,3.5-6.1,7.1c0,3.9,2.7,7.1,6.3,7.1c1.9,0,3.8-1,5.3-2.8v-2.5h-3.9v-1.7h5.8v9.1h-1.9
			V48.8"/>
		<path class="st9" d="M125.3,33.1l5.5,9.4l5.5-9.4h2.5l-6.9,11.4v6.6h-2.3v-6.7L122.7,33L125.3,33.1"/>
	</g>
</g>
</svg>
