<?xml version="1.0" encoding="utf-8"?>
<!-- Generator: Adobe Illustrator 16.0.0, SVG Export Plug-In . SVG Version: 6.00 Build 0)  -->
<!DOCTYPE svg PUBLIC "-//W3C//DTD SVG 1.1//EN" "http://www.w3.org/Graphics/SVG/1.1/DTD/svg11.dtd">
<svg version="1.1" id="Layer_1" xmlns="http://www.w3.org/2000/svg" xmlns:xlink="http://www.w3.org/1999/xlink" x="0px" y="0px"
	 width="96px" height="80px" viewBox="0 0 96 80" style="enable-background:new 0 0 96 80;" xml:space="preserve">
<style type="text/css">
<![CDATA[
	.st0{fill:url(#SVGID_1_);}
	.st1{opacity:0.15;fill:#3D97D3;enable-background:new    ;}
	.st2{fill:#FFFFFF;}
]]>
</style>
<g>
	<g>
		
			<linearGradient id="SVGID_1_" gradientUnits="userSpaceOnUse" x1="299.917" y1="451.5996" x2="299.917" y2="371.6484" gradientTransform="matrix(1 0 0 1 -270.0352 -371.6484)">
			<stop  offset="0" style="stop-color:#1E76BB"/>
			<stop  offset="1" style="stop-color:#3D97D3"/>
		</linearGradient>
		<polygon class="st0" points="59.8,60 0,80 0,0 59.8,0 		"/>
		<polygon class="st1" points="59.7,60 96,80 0.4,80 		"/>
	</g>
	<path class="st2" d="M44.5,31.7c-0.6,0.2-1.2,0.4-1.9,0.4c-0.7,0-1.4-0.2-1.9-0.6c-2-1.6-0.5-3.9,0.4-5.6c0.4-0.6,1.1-1.8,0.5-2.5
		c-0.2-0.3-0.5-0.4-0.8-0.4c-0.7,0-1.4,0.6-1.7,1.1c-0.6,1.3-1.2,2.5-1.5,3.8c-0.6-0.6-2.1-1.2-3.4-1.2c-1,0-1.8,0.4-1.8,1.4
		c0,0.7,0.4,0.9,0.8,0.9c0.5,0,1.2-0.3,1.6-0.4H35c2.3,0,5.2,4.5,3.7,6.5c-0.8,1.1-2.9,1.6-4.7,1.6c-0.8,0-1.4-0.1-1.9-0.3
		c-0.8-0.3-1.1-1.3-1.9-1.7c-1.1-0.7-2.2-1-3.3-1c-1.4,0-2.8,0.5-4.2,1.3c0.2,0.6-0.2,1.6,0.5,1.8c1-0.7,2.1-1,3.1-1
		c1.8,0,3.4,1,3.9,2.6c0.1,0.4-1.1,0.5-1.4,0.5c0,0,0,0-0.1,0c-0.2,0-0.4,0-0.6,0c-0.2,0-0.5,0.1-0.7,0.3c-0.7,0.6-0.9,1.7-1.2,2.5
		c-0.2,0.6-0.4,1.2-0.6,1.8c-0.2,0.5-0.6,1.5-0.6,2c-0.1-1.1-0.1-2.2,0-3.3c0-0.3,0.2-2.9,0-2.9c-0.1,0-0.1,0-0.2,0
		c-0.5,0-1,0.1-1.6,0.1c-0.6,0-1.1-0.1-1.7-0.4c-0.4-0.3-1.2-1.1-1.7-1.1c0,0,0,0,0,0c-0.4,0-0.9,0.7-1.3,0.9
		c-0.3,0.1-0.5,0.2-0.8,0.2c-0.3,0-0.5-0.1-0.8-0.2c-2.4-1.5-1.3-4.8,0.9-5.9c2.4-1.2,5.8,0.2,7.6-2.6c0.4-0.7-0.3-2.3-1.2-2.3
		c-0.3,0-0.7,0.2-1.2,0.5c-0.6,0.4-1.2,0.7-1.8,1c-0.6,0.3-1.3,0.7-2,0.7c-0.1,0-0.2,0-0.4,0c-0.6-0.2-0.6-1.7-0.6-2.1
		c-0.1-0.6-0.5-2.4-1.4-2.4c-0.1,0-0.2,0-0.3,0.1c-0.8,0.4-0.5,1.7-0.4,2.3c0.2,0.8,0.8,1.6,0.6,2.5c-0.1,0.7-0.7,1.3-1.2,1.8
		c-0.4,0.5-1.3,1.7-1.9,1.7c-0.2,0-0.5-0.2-0.6-0.6c-0.3-0.8-0.4-1.8-0.2-2.7c0.3-1.3,1-2.5,1.6-3.7c0.1-0.3-0.3-1.3-0.4-1.6
		c-0.1-0.4-0.2-0.9-0.2-1.4c-0.1-1,0-2,0.7-2.8c0.8-1,2.2-1.6,3.4-2c0.8-0.3,2-0.4,3.1-0.4c1.8,0,3.7,0.5,4.7,1.8
		c0.8,1.2,0.5,2.7,1.2,3.9c0.3,0.5,0.9,0.8,1.5,0.8c0.4,0,0.8-0.2,0.9-0.8c0.3-1.3-1.2-2.9-1.7-4c-0.6-1.3,0.4-0.9,1-1.8
		c0.3-0.5,0-1.1-0.4-1.5c-0.2-0.1-0.4-0.2-0.6-0.2c-0.5,0-1,0.4-1.5,0.6c-0.3,0.1-0.7,0.1-1,0.1c-0.2,0-0.4,0-0.5,0
		c-0.7-0.1-1.7-0.3-2.3-0.8c-0.2-0.1-0.3-0.2-0.3-0.4c-0.5-1.1,3.1-2.1,3.9-2.2c0.2,0,0.3,0,0.5,0c1.4,0,2.4,1.1,3.4,2.1
		c0.5,0.5,1.2,1.4,1.9,1.7c0.4-0.5,0.6-1.2,1-1.7c0.7-1.1,1.9-2,3.2-2c0.2,0,0.3,0,0.5,0c2.8,0.4,2.5,3.6,4.1,5.3
		c0.3,0.3,0.5,0.4,0.7,0.4c0.3,0,0.5-0.2,0.9-0.4c0.2-0.1,0.5-0.2,0.7-0.2c1.1,0,2,1.2,2.5,2c0.7,1.2,1,2.6,0.9,4
		c0,0.4-0.1,0.8-0.2,1.2c-0.3,1.1,1,1.5,1,2.5C47.2,30.5,45.5,31.4,44.5,31.7 M49.5,26.5c0-0.3,0.1-0.5,0.1-0.8
		c0.1-2.1-0.3-4.2-1.4-5.9c-0.7-1.1-2.5-3.5-5.4-3.5c-0.2,0-0.3,0-0.5,0c0,0,0-0.1,0-0.1c-0.6-1.6-1.8-4.5-5.4-5
		c-0.3,0-0.6-0.1-0.9-0.1c-1.8,0-3.4,0.7-4.8,2c-1.1-1-2.6-2-4.7-2c-0.3,0-0.7,0-1,0.1c-1.1,0.2-5,1-6.2,3.4
		c-0.2,0.3-0.3,0.7-0.4,1.1c-0.6,0.1-1.3,0.2-1.8,0.4c-1.5,0.5-3.6,1.4-4.9,3.1c-0.8,1-1.6,2.6-1.4,5.1c0.1,0.7,0.2,1.3,0.3,1.7
		c0,0.1,0.1,0.3,0.1,0.5c-0.5,1-1,2.1-1.3,3.4c-0.4,1.8,0.1,3.7,0.3,4.4c0.5,1.5,1.5,2.3,2.5,2.7c0.4,2,1.3,3.6,2.8,4.5
		c0.8,0.5,1.7,0.7,2.5,0.7c0.7,0,1.4-0.2,2.1-0.5c0.5,0.3,1.1,0.6,1.8,0.7c-0.1,1.1-0.1,2.2,0,3.5c0.2,1.7,1.6,2.9,3.3,2.9
		c0.1,0,0.2,0,0.4,0c1.6-0.2,2.9-1.5,2.9-3.1c0-0.1,0.1-0.3,0.2-0.4c0.1-0.3,0.2-0.5,0.3-0.7c0.2-0.6,0.4-1.1,0.5-1.5
		c0.1-0.2,0.2-0.5,0.3-0.7c1-0.1,2.4-0.5,3.2-1.6c0.2-0.2,0.3-0.5,0.4-0.7c0.2,0,0.5,0,0.8,0c2.5,0,5.7-0.8,7.4-2.9
		c0.4-0.5,0.7-1.1,0.9-1.8c0.2,0,0.3,0,0.5,0c1.3,0,2.4-0.3,3.1-0.6c3.1-1.1,4.8-3.3,4.7-5.7C50.3,27.9,49.9,27.1,49.5,26.5"/>
</g>
</svg>
