<?xml version="1.0" encoding="utf-8"?>
<!-- Generator: Adobe Illustrator 16.0.0, SVG Export Plug-In . SVG Version: 6.00 Build 0)  -->
<!DOCTYPE svg PUBLIC "-//W3C//DTD SVG 1.1//EN" "http://www.w3.org/Graphics/SVG/1.1/DTD/svg11.dtd">
<svg version="1.1" id="Layer_1" xmlns="http://www.w3.org/2000/svg" xmlns:xlink="http://www.w3.org/1999/xlink" x="0px" y="0px"
	 width="96px" height="80px" viewBox="0 0 96 80" style="enable-background:new 0 0 96 80;" xml:space="preserve">
<style type="text/css">
<![CDATA[
	.st0{fill:url(#SVGID_1_);}
	.st1{opacity:0.15;fill:#3D97D3;enable-background:new    ;}
	.st2{fill:#FFFFFF;}
]]>
</style>
<g>
	<g>
		
			<linearGradient id="SVGID_1_" gradientUnits="userSpaceOnUse" x1="299.917" y1="452.9707" x2="299.917" y2="373.0195" gradientTransform="matrix(1 0 0 1 -270.0352 -373.0195)">
			<stop  offset="0" style="stop-color:#1E76BB"/>
			<stop  offset="1" style="stop-color:#3D97D3"/>
		</linearGradient>
		<polygon class="st0" points="59.8,60 0,80 0,0 59.8,0 		"/>
		<polygon class="st1" points="59.7,60 96,80 0.4,80 		"/>
	</g>
	<g>
		<path class="st2" d="M47.8,47.9l-12.4-4.5c-2.1,1-4.4,1.5-6.7,1.5c-9,0-16.4-7.4-16.4-16.4c0-9,7.4-16.4,16.4-16.4
			c9,0,16.4,7.4,16.4,16.4c0,3.7-1.2,7.3-3.5,10.2L47.8,47.9z M35.2,40.8l6.5,2.3l-3.2-4.7l0.6-0.7c2.3-2.6,3.5-5.9,3.5-9.3
			c0-7.7-6.3-14-14-14c-7.7,0-14,6.3-14,14c0,7.7,6.3,14,14,14c2.1,0,4.2-0.5,6.2-1.4L35.2,40.8z"/>
		<g>
			<circle class="st2" cx="29.1" cy="22" r="1.8"/>
			<polygon class="st2" points="30.8,27.8 30.8,25.3 30.8,25.3 26.3,25.3 26.3,28.3 27.8,28.3 27.8,33.5 26.3,33.5 26.3,36.5 
				32.3,36.5 32.3,33.5 30.8,33.5 			"/>
		</g>
	</g>
</g>
</svg>
